<svg width="649" height="206" viewBox="0 0 649 206" fill="none" xmlns="http://www.w3.org/2000/svg">
<g clip-path="url(#clip0_1_97)">
<path fill-rule="evenodd" clip-rule="evenodd" d="M421.331 0.656911C417.779 1.72291 413.115 6.01993 411.818 9.42193C411.333 10.6949 410.936 40.5519 410.936 75.7709C410.936 146.348 410.754 144.205 417.151 148.76C424.224 153.797 434.458 151.361 438.818 143.603C440.914 139.873 440.936 139.178 440.936 75.3689V10.9029L438.686 7.59691C434.359 1.23891 427.942 -1.32709 421.331 0.656911ZM586.936 37.2309C574.69 39.6019 563.501 45.9439 554.654 55.5269C547.824 62.9259 543.525 70.9859 540.868 81.3729C532.883 112.595 553.439 145.495 585.155 152.253C602.842 156.022 627.383 149.214 635.08 138.404C639.842 131.718 637.912 123.001 630.695 118.602C625.796 115.615 621.06 116.071 612.94 120.312C601.368 126.357 589.179 125.894 579.841 119.055C575.99 116.235 570.936 109.92 570.936 107.929C570.936 106.86 577.291 106.607 604.202 106.607C641.777 106.607 642.371 106.501 646.67 99.0029C650.787 91.8219 649.144 77.4049 642.866 65.6269C633.765 48.5509 616.97 37.8869 597.936 37.0989C593.261 36.9059 588.311 36.9649 586.936 37.2309ZM223.1 40.1569C208.365 45.1759 197.287 54.7939 190.953 68.0669C188.843 72.4889 186.626 78.4919 186.026 81.4059C185.319 84.8439 184.936 105.496 184.936 140.196C184.936 192.221 184.992 193.797 186.995 197.722C189.228 202.1 195.051 205.545 200.285 205.585C204.413 205.617 209.639 202.833 212.206 199.234C214.432 196.113 214.437 195.997 214.936 141.607L215.436 87.1069L218.152 81.9579C224.93 69.1049 238.974 64.4899 251.806 70.8989C267.449 78.7109 270.521 100.868 257.736 113.653C253.43 117.959 248.036 120.235 239.3 121.433C235.375 121.971 230.996 123.177 229.568 124.113C222.674 128.63 220.728 138.829 225.645 144.673C239.147 160.719 275.419 147.471 288.894 121.57C297.959 104.147 298.256 86.3939 289.779 68.7349C283.006 54.6249 270.049 43.6209 255.004 39.2019C246.389 36.6719 232.074 37.0999 223.1 40.1569ZM313.436 39.0189C309.758 40.6529 306.422 44.1749 305.003 47.9219C303.627 51.5519 303.571 105.365 304.935 112.721C307.134 124.579 316.671 138.479 326.936 144.783C349.263 158.496 380.049 150.86 393.25 128.334C399.355 117.917 399.785 114.877 400.034 80.4539C400.25 50.5959 400.154 48.6649 398.294 45.4789C392.528 35.6079 379.693 35.3639 372.498 44.9889C370.551 47.5939 370.408 49.4259 369.936 77.9269C369.38 111.462 369.287 111.949 362.431 117.179C358.751 119.986 352.04 121.352 347.514 120.216C344.239 119.394 338.31 114.18 336.135 110.209C334.653 107.503 334.424 103.39 334.345 77.9719C334.242 44.6399 334.098 43.9859 325.951 39.8569C320.919 37.3059 317.764 37.0949 313.436 39.0189ZM478.187 39.1519C467.074 42.1439 459.304 47.9039 454.374 56.8029C451.673 61.6799 451.436 62.9129 451.436 72.1069C451.436 83.6899 452.854 87.3149 460.103 94.2549C465.852 99.7579 472.522 102.955 486.15 106.736C499.982 110.573 504.706 112.844 505.509 116.04C507.114 122.437 503.014 125.851 493.796 125.793C485.938 125.745 483.205 124.731 475.675 119.07C470.614 115.266 469.052 114.609 465.087 114.622C459.265 114.64 456.127 116.199 453.216 120.519C450.128 125.102 450.122 132.091 453.203 136.709C456.327 141.392 466.078 147.712 474.449 150.481C484.08 153.666 498.273 154.417 506.911 152.197C518.878 149.122 528.09 141.835 532.753 131.755C536.59 123.46 536.54 112.356 532.63 104.393C529.393 97.8009 522.97 91.7129 515.56 88.2119C512.742 86.8809 504.454 84.0019 497.142 81.8139C482.855 77.5399 479.936 75.8079 479.936 71.6069C479.936 67.7799 483.095 65.3939 488.901 64.8359C495.751 64.1779 502.44 66.0729 508.203 70.3029C514.153 74.6709 519.818 75.5549 524.916 72.9119C535.009 67.6779 535.655 53.8269 526.112 47.2389C521.259 43.8879 514.659 41.0299 507.413 39.1429C500.118 37.2429 485.26 37.2479 478.187 39.1519ZM589.436 66.5359C583.172 68.0469 575.315 74.1649 572.328 79.8569L570.885 82.6069H594.91C608.124 82.6069 618.936 82.3599 618.936 82.0569C618.936 80.2919 615.521 75.4649 612.06 72.3379C606.087 66.9419 597.199 64.6619 589.436 66.5359Z" fill="#F8F8F8"/>
<rect x="2.5" y="94.5" width="13" height="18" rx="6.5" stroke="#F8F8F8" stroke-width="5"/>
<rect x="29.5" y="76.5" width="13" height="54" rx="6.5" stroke="#F8F8F8" stroke-width="5"/>
<rect x="56.5" y="91.5" width="13" height="24" rx="6.5" stroke="#F8F8F8" stroke-width="5"/>
<rect x="83.5" y="71.5" width="13" height="64" rx="6.5" stroke="#F8F8F8" stroke-width="5"/>
<rect x="110.5" y="44.5" width="13" height="118" rx="6.5" stroke="#F8F8F8" stroke-width="5"/>
<rect x="137.5" y="6.5" width="13" height="194" rx="6.5" stroke="#F8F8F8" stroke-width="5"/>
</g>
<defs>
<clipPath id="clip0_1_97">
<rect width="649" height="206" fill="white"/>
</clipPath>
</defs>
</svg>
