<svg width="649" height="230" viewBox="0 0 649 230" fill="none" xmlns="http://www.w3.org/2000/svg">
<g clip-path="url(#clip0_1_66)">
<path fill-rule="evenodd" clip-rule="evenodd" d="M493.864 169.194C492.83 170.44 492.606 176.714 492.822 198.444C493.055 221.945 493.334 226.37 494.671 227.857C496.757 230.174 500.466 230.077 502.902 227.641C504.852 225.691 504.903 225.69 509.152 227.619C526.85 235.651 544.681 217.317 538.714 197.223C537.979 194.75 535.684 191.3 532.964 188.579C525.738 181.354 516.193 179.623 507.59 183.979L502.905 186.351L503.17 178.639C503.356 173.244 503.024 170.429 502.064 169.267C500.322 167.161 495.587 167.118 493.864 169.194ZM543.466 169.574C539.526 173.927 542.555 180.607 548.469 180.607C552.067 180.607 553.449 179.394 554.466 175.344C556.062 168.986 547.881 164.695 543.466 169.574ZM560.136 168.807C559.258 169.685 558.936 177.733 558.936 198.772C558.936 226.187 559.027 227.585 560.87 228.572C563.948 230.219 566.699 229.784 568.379 227.384C569.695 225.506 569.936 220.969 569.936 198.039C569.936 173.034 569.793 170.788 568.107 169.262C565.968 167.326 561.852 167.091 560.136 168.807ZM389.436 183.503C384.17 185.941 380.376 190.173 379.035 195.107C378.437 197.307 377.945 205.069 377.942 212.357C377.937 224.278 378.137 225.808 379.936 227.607C382.338 230.009 385.224 230.176 387.365 228.036C388.629 226.771 388.936 223.969 388.936 213.685C388.936 206.656 389.433 199.479 390.041 197.735C391.971 192.199 397.36 190.94 401.481 195.062C403.862 197.442 403.936 197.955 403.936 212.005C403.936 225.843 404.036 226.563 406.159 228.05C409.056 230.08 411.254 230.02 413.205 227.857C414.457 226.47 414.852 223.069 415.11 211.459C415.393 198.737 415.687 196.534 417.341 194.709C420.123 191.639 425.233 191.898 427.863 195.242C429.739 197.627 429.936 199.225 429.936 212.087C429.936 224.583 430.157 226.497 431.765 227.952C434.069 230.038 437.327 230.074 439.365 228.036C440.655 226.746 440.936 223.757 440.936 211.351C440.936 197.995 440.69 195.729 438.815 191.857C433.992 181.894 420.089 178.4 412.081 185.138C409.408 187.387 409.054 187.454 407.802 185.944C404.198 181.598 395.925 180.499 389.436 183.503ZM459.551 183.079C454.653 184.825 448.258 190.9 445.839 196.107C443.384 201.39 443.379 210.784 445.829 216.178C449.464 224.181 460.56 230.36 469.489 229.354C478.933 228.289 487.807 220.098 489.853 210.556C493.648 192.861 476.284 177.115 459.551 183.079ZM586.936 183.199C581.909 185.373 577.053 190.343 574.323 196.107C565.43 214.887 583.319 234.35 604.155 228.563C609.457 227.09 613.936 223.04 613.936 219.718C613.936 214.469 609.74 213.094 604.436 216.607C598.738 220.381 586.536 218.219 584.567 213.087C584.08 211.818 586.297 211.607 600.107 211.607C618.491 211.607 618.865 211.448 618.882 203.607C618.901 195.24 612.72 186.504 604.291 182.982C599.988 181.184 591.345 181.292 586.936 183.199ZM544.936 184.607C543.073 186.47 542.936 187.94 542.936 206.107C542.936 224.274 543.073 225.744 544.936 227.607C547.343 230.014 548.776 230.108 551.713 228.05C553.887 226.528 553.936 226.04 553.936 206.107C553.936 186.174 553.887 185.686 551.713 184.164C548.776 182.106 547.343 182.2 544.936 184.607ZM460.699 194.172C457.839 195.724 455.691 199.13 454.533 203.952C452.943 210.576 460.103 218.613 467.587 218.603C473.709 218.595 479.936 212.008 479.936 205.54C479.936 201.94 476.756 196.469 473.516 194.493C469.847 192.255 464.479 192.121 460.699 194.172ZM509.834 194.89C500.155 201.392 503.517 216.367 515.078 218.243C522.497 219.447 529.224 213.378 529.116 205.579C528.968 194.858 518.511 189.061 509.834 194.89ZM588.565 194.685C587.112 195.827 585.46 197.627 584.894 198.685C583.907 200.53 584.331 200.607 595.401 200.607C608.266 200.607 609.416 199.871 603.859 195.196C599.852 191.824 592.513 191.579 588.565 194.685Z" fill="#F8F8F8"/>
<path fill-rule="evenodd" clip-rule="evenodd" d="M421.331 0.656911C417.779 1.72291 413.115 6.01993 411.818 9.42193C411.333 10.6949 410.936 40.5519 410.936 75.7709C410.936 146.348 410.754 144.205 417.151 148.76C424.224 153.797 434.458 151.361 438.818 143.603C440.914 139.873 440.936 139.178 440.936 75.3689V10.9029L438.686 7.59691C434.359 1.23891 427.942 -1.32709 421.331 0.656911ZM586.936 37.2309C574.69 39.6019 563.501 45.9439 554.654 55.5269C547.824 62.9259 543.525 70.9859 540.868 81.3729C532.883 112.595 553.439 145.495 585.155 152.253C602.842 156.022 627.383 149.214 635.08 138.404C639.842 131.718 637.912 123.001 630.695 118.602C625.796 115.615 621.06 116.071 612.94 120.312C601.368 126.357 589.179 125.894 579.841 119.055C575.99 116.235 570.936 109.92 570.936 107.929C570.936 106.86 577.291 106.607 604.202 106.607C641.777 106.607 642.371 106.501 646.67 99.0029C650.787 91.8219 649.144 77.4049 642.866 65.6269C633.765 48.5509 616.97 37.8869 597.936 37.0989C593.261 36.9059 588.311 36.9649 586.936 37.2309ZM223.1 40.1569C208.365 45.1759 197.287 54.7939 190.953 68.0669C188.843 72.4889 186.626 78.4919 186.026 81.4059C185.319 84.8439 184.936 105.496 184.936 140.196C184.936 192.221 184.992 193.797 186.995 197.722C189.228 202.1 195.051 205.545 200.285 205.585C204.413 205.617 209.639 202.833 212.206 199.234C214.432 196.113 214.437 195.997 214.936 141.607L215.436 87.1069L218.152 81.9579C224.93 69.1049 238.974 64.4899 251.806 70.8989C267.449 78.7109 270.521 100.868 257.736 113.653C253.43 117.959 248.036 120.235 239.3 121.433C235.375 121.971 230.996 123.177 229.568 124.113C222.674 128.63 220.728 138.829 225.645 144.673C239.147 160.719 275.419 147.471 288.894 121.57C297.959 104.147 298.256 86.3939 289.779 68.7349C283.006 54.6249 270.049 43.6209 255.004 39.2019C246.389 36.6719 232.074 37.0999 223.1 40.1569ZM313.436 39.0189C309.758 40.6529 306.422 44.1749 305.003 47.9219C303.627 51.5519 303.571 105.365 304.935 112.721C307.134 124.579 316.671 138.479 326.936 144.783C349.263 158.496 380.049 150.86 393.25 128.334C399.355 117.917 399.785 114.877 400.034 80.4539C400.25 50.5959 400.154 48.6649 398.294 45.4789C392.528 35.6079 379.693 35.3639 372.498 44.9889C370.551 47.5939 370.408 49.4259 369.936 77.9269C369.38 111.462 369.287 111.949 362.431 117.179C358.751 119.986 352.04 121.352 347.514 120.216C344.239 119.394 338.31 114.18 336.135 110.209C334.653 107.503 334.424 103.39 334.345 77.9719C334.242 44.6399 334.098 43.9859 325.951 39.8569C320.919 37.3059 317.764 37.0949 313.436 39.0189ZM478.187 39.1519C467.074 42.1439 459.304 47.9039 454.374 56.8029C451.673 61.6799 451.436 62.9129 451.436 72.1069C451.436 83.6899 452.854 87.3149 460.103 94.2549C465.852 99.7579 472.522 102.955 486.15 106.736C499.982 110.573 504.706 112.844 505.509 116.04C507.114 122.437 503.014 125.851 493.796 125.793C485.938 125.745 483.205 124.731 475.675 119.07C470.614 115.266 469.052 114.609 465.087 114.622C459.265 114.64 456.127 116.199 453.216 120.519C450.128 125.102 450.122 132.091 453.203 136.709C456.327 141.392 466.078 147.712 474.449 150.481C484.08 153.666 498.273 154.417 506.911 152.197C518.878 149.122 528.09 141.835 532.753 131.755C536.59 123.46 536.54 112.356 532.63 104.393C529.393 97.8009 522.97 91.7129 515.56 88.2119C512.742 86.8809 504.454 84.0019 497.142 81.8139C482.855 77.5399 479.936 75.8079 479.936 71.6069C479.936 67.7799 483.095 65.3939 488.901 64.8359C495.751 64.1779 502.44 66.0729 508.203 70.3029C514.153 74.6709 519.818 75.5549 524.916 72.9119C535.009 67.6779 535.655 53.8269 526.112 47.2389C521.259 43.8879 514.659 41.0299 507.413 39.1429C500.118 37.2429 485.26 37.2479 478.187 39.1519ZM589.436 66.5359C583.172 68.0469 575.315 74.1649 572.328 79.8569L570.885 82.6069H594.91C608.124 82.6069 618.936 82.3599 618.936 82.0569C618.936 80.2919 615.521 75.4649 612.06 72.3379C606.087 66.9419 597.199 64.6619 589.436 66.5359Z" fill="#F8F8F8"/>
<rect x="2.5" y="105.5" width="13" height="18" rx="6.5" stroke="#F8F8F8" stroke-width="5"/>
<rect x="29.5" y="87.5" width="13" height="54" rx="6.5" stroke="#F8F8F8" stroke-width="5"/>
<rect x="56.5" y="102.5" width="13" height="24" rx="6.5" stroke="#F8F8F8" stroke-width="5"/>
<rect x="83.5" y="82.5" width="13" height="64" rx="6.5" stroke="#F8F8F8" stroke-width="5"/>
<rect x="110.5" y="55.5" width="13" height="118" rx="6.5" stroke="#F8F8F8" stroke-width="5"/>
<rect x="137.5" y="17.5" width="13" height="194" rx="6.5" stroke="#F8F8F8" stroke-width="5"/>
</g>
<defs>
<clipPath id="clip0_1_66">
<rect width="649" height="230" fill="white"/>
</clipPath>
</defs>
</svg>
