<svg version="1.1" viewBox="0.0 0.0 960.0 540.0" fill="none" stroke="none" stroke-linecap="square" stroke-miterlimit="10" xmlns:xlink="http://www.w3.org/1999/xlink" xmlns="http://www.w3.org/2000/svg"><clipPath id="g34d2c74ab78_0_98.0"><path d="m0 0l960.0 0l0 540.0l-960.0 0l0 -540.0z" clip-rule="nonzero"/></clipPath><g clip-path="url(#g34d2c74ab78_0_98.0)"><path fill="#f8f8f8" d="m0 0l960.0 0l0 540.0l-960.0 0z" fill-rule="evenodd"/><path fill="#000000" fill-opacity="0.0" d="m527.2477 193.00787l376.56696 0l0 279.68503l-376.56696 0z" fill-rule="evenodd"/><path fill="#312f41" d="m538.6852 230.16788l0 -20.53125l9.328125 0q3.34375 0 5.890625 1.28125q2.546875 1.265625 3.984375 3.5625q1.4375 2.28125 1.4375 5.421875q0 3.109375 -1.4375 5.421875q-1.4375 2.296875 -3.984375 3.578125q-2.546875 1.265625 -5.890625 1.265625l-9.328125 0zm4.75 -3.90625l4.34375 0q2.046875 0 3.546875 -0.765625q1.515625 -0.78125 2.34375 -2.21875q0.84375 -1.4375 0.84375 -3.375q0 -1.96875 -0.84375 -3.390625q-0.828125 -1.421875 -2.34375 -2.1875q-1.5 -0.78125 -3.546875 -0.78125l-4.34375 0l0 12.71875zm19.146912 3.90625l0 -15.78125l4.578125 0l0 15.78125l-4.578125 0zm2.28125 -17.984375q-1.265625 0 -2.0625 -0.71875q-0.78125 -0.734375 -0.78125 -1.828125q0 -1.078125 0.78125 -1.8125q0.796875 -0.734375 2.0625 -0.734375q1.265625 0 2.046875 0.6875q0.796875 0.6875 0.796875 1.765625q0 1.15625 -0.78125 1.90625q-0.765625 0.734375 -2.0625 0.734375zm13.968384 23.90625q-2.234375 0 -4.296875 -0.546875q-2.0625 -0.53125 -3.453125 -1.625l1.828125 -3.28125q1.0 0.828125 2.53125 1.3125q1.546875 0.484375 3.046875 0.484375q2.421875 0 3.515625 -1.09375q1.109375 -1.078125 1.109375 -3.21875l0 -2.375l0.296875 -3.96875l-0.0625 -3.984375l0 -3.40625l4.34375 0l0 13.140625q0 4.40625 -2.296875 6.484375q-2.28125 2.078125 -6.5625 2.078125zm-0.703125 -6.6875q-2.203125 0 -3.984375 -0.953125q-1.765625 -0.953125 -2.84375 -2.65625q-1.0625 -1.71875 -1.0625 -4.015625q0 -2.3125 1.0625 -4.03125q1.078125 -1.71875 2.84375 -2.65625q1.78125 -0.9375 3.984375 -0.9375q2.0 0 3.515625 0.8125q1.53125 0.796875 2.375 2.484375q0.859375 1.6875 0.859375 4.328125q0 2.609375 -0.859375 4.296875q-0.84375 1.6875 -2.375 2.515625q-1.515625 0.8125 -3.515625 0.8125zm0.90625 -3.75q1.203125 0 2.140625 -0.484375q0.9375 -0.484375 1.46875 -1.359375q0.53125 -0.890625 0.53125 -2.03125q0 -1.171875 -0.53125 -2.03125q-0.53125 -0.875 -1.46875 -1.359375q-0.9375 -0.484375 -2.140625 -0.484375q-1.203125 0 -2.140625 0.484375q-0.9375 0.484375 -1.484375 1.359375q-0.53125 0.859375 -0.53125 2.03125q0 1.140625 0.53125 2.03125q0.546875 0.875 1.484375 1.359375q0.9375 0.484375 2.140625 0.484375zm12.904663 4.515625l0 -15.78125l4.578125 0l0 15.78125l-4.578125 0zm2.28125 -17.984375q-1.265625 0 -2.0625 -0.71875q-0.78125 -0.734375 -0.78125 -1.828125q0 -1.078125 0.78125 -1.8125q0.796875 -0.734375 2.0625 -0.734375q1.265625 0 2.046875 0.6875q0.796875 0.6875 0.796875 1.765625q0 1.15625 -0.78125 1.90625q-0.765625 0.734375 -2.0625 0.734375zm12.999634 18.21875q-2.78125 0 -4.34375 -1.421875q-1.546875 -1.421875 -1.546875 -4.234375l0 -13.84375l4.578125 0l0 13.78125q0 1.0 0.515625 1.546875q0.53125 0.53125 1.4375 0.53125q1.09375 0 1.859375 -0.578125l1.21875 3.21875q-0.703125 0.5 -1.6875 0.75q-0.96875 0.25 -2.03125 0.25zm-8.328125 -12.5l0 -3.515625l10.9375 0l0 3.515625l-10.9375 0zm23.792236 12.265625l0 -3.078125l-0.296875 -0.671875l0 -5.515625q0 -1.46875 -0.90625 -2.28125q-0.890625 -0.828125 -2.734375 -0.828125q-1.265625 0 -2.484375 0.40625q-1.203125 0.390625 -2.0625 1.0625l-1.640625 -3.203125q1.296875 -0.90625 3.109375 -1.40625q1.8125 -0.5 3.6875 -0.5q3.609375 0 5.609375 1.703125q2.0 1.703125 2.0 5.3125l0 9.0l-4.28125 0zm-4.8125 0.234375q-1.859375 0 -3.171875 -0.625q-1.3125 -0.640625 -2.03125 -1.71875q-0.703125 -1.09375 -0.703125 -2.4375q0 -1.40625 0.6875 -2.453125q0.703125 -1.0625 2.1875 -1.65625q1.5 -0.609375 3.90625 -0.609375l4.1875 0l0 2.671875l-3.6875 0q-1.609375 0 -2.21875 0.53125q-0.59375 0.515625 -0.59375 1.3125q0 0.875 0.6875 1.390625q0.6875 0.515625 1.890625 0.515625q1.140625 0 2.046875 -0.546875q0.921875 -0.546875 1.328125 -1.59375l0.703125 2.109375q-0.5 1.53125 -1.828125 2.328125q-1.3125 0.78125 -3.390625 0.78125zm13.220459 -0.234375l0 -21.765625l4.578125 0l0 21.765625l-4.578125 0zm17.127625 0l0 -15.78125l4.578125 0l0 15.78125l-4.578125 0zm2.28125 -17.984375q-1.265625 0 -2.0625 -0.71875q-0.78125 -0.734375 -0.78125 -1.828125q0 -1.078125 0.78125 -1.8125q0.796875 -0.734375 2.0625 -0.734375q1.265625 0 2.046875 0.6875q0.796875 0.6875 0.796875 1.765625q0 1.15625 -0.78125 1.90625q-0.765625 0.734375 -2.0625 0.734375zm6.546509 17.984375l0 -15.78125l4.375 0l0 4.375l-0.828125 -1.328125q0.859375 -1.578125 2.4375 -2.421875q1.578125 -0.859375 3.609375 -0.859375q1.875 0 3.359375 0.75q1.484375 0.75 2.328125 2.296875q0.84375 1.53125 0.84375 3.9375l0 9.03125l-4.5625 0l0 -8.328125q0 -1.90625 -0.84375 -2.8125q-0.828125 -0.90625 -2.359375 -0.90625q-1.078125 0 -1.953125 0.453125q-0.859375 0.453125 -1.34375 1.390625q-0.484375 0.9375 -0.484375 2.40625l0 7.796875l-4.578125 0zm26.718811 0.234375q-2.78125 0 -4.34375 -1.421875q-1.546875 -1.421875 -1.546875 -4.234375l0 -13.84375l4.578125 0l0 13.78125q0 1.0 0.515625 1.546875q0.53125 0.53125 1.4375 0.53125q1.09375 0 1.859375 -0.578125l1.21875 3.21875q-0.703125 0.5 -1.6875 0.75q-0.96875 0.25 -2.03125 0.25zm-8.328125 -12.5l0 -3.515625l10.9375 0l0 3.515625l-10.9375 0zm21.962158 12.5q-2.6875 0 -4.734375 -1.046875q-2.03125 -1.0625 -3.15625 -2.890625q-1.109375 -1.84375 -1.109375 -4.1875q0 -2.375 1.09375 -4.203125q1.109375 -1.84375 3.015625 -2.875q1.90625 -1.046875 4.3125 -1.046875q2.3125 0 4.171875 0.984375q1.859375 0.984375 2.9375 2.828125q1.09375 1.828125 1.09375 4.375q0 0.265625 -0.03125 0.609375q-0.015625 0.328125 -0.046875 0.625l-12.828125 0l0 -2.671875l10.421875 0l-1.765625 0.796875q0 -1.234375 -0.5 -2.140625q-0.5 -0.921875 -1.375 -1.421875q-0.875 -0.515625 -2.046875 -0.515625q-1.171875 0 -2.078125 0.515625q-0.890625 0.5 -1.390625 1.4375q-0.5 0.921875 -0.5 2.171875l0 0.703125q0 1.296875 0.5625 2.28125q0.578125 0.984375 1.625 1.5q1.046875 0.5 2.453125 0.5q1.265625 0 2.21875 -0.375q0.953125 -0.375 1.734375 -1.140625l2.4375 2.640625q-1.078125 1.234375 -2.734375 1.890625q-1.640625 0.65625 -3.78125 0.65625zm10.6779175 -0.234375l0 -15.78125l4.375 0l0 4.453125l-0.625 -1.28125q0.703125 -1.671875 2.25 -2.53125q1.5625 -0.875 3.796875 -0.875l0 4.21875q-0.296875 -0.015625 -0.53125 -0.03125q-0.234375 -0.015625 -0.5 -0.015625q-1.875 0 -3.03125 1.078125q-1.15625 1.0625 -1.15625 3.3125l0 7.453125l-4.578125 0zm13.202942 0l0 -16.125q0 -2.671875 1.578125 -4.265625q1.59375 -1.609375 4.515625 -1.609375q1.0 0 1.921875 0.21875q0.921875 0.203125 1.578125 0.640625l-1.203125 3.3125q-0.390625 -0.265625 -0.859375 -0.40625q-0.46875 -0.15625 -1.0 -0.15625q-0.984375 0 -1.53125 0.578125q-0.546875 0.5625 -0.546875 1.71875l0 1.453125l0.125 1.96875l0 12.671875l-4.578125 0zm-2.4375 -11.90625l0 -3.515625l10.9375 0l0 3.515625l-10.9375 0zm22.61914 11.90625l0 -3.078125l-0.296875 -0.671875l0 -5.515625q0 -1.46875 -0.90625 -2.28125q-0.890625 -0.828125 -2.734375 -0.828125q-1.265625 0 -2.484375 0.40625q-1.203125 0.390625 -2.0625 1.0625l-1.640625 -3.203125q1.296875 -0.90625 3.109375 -1.40625q1.8125 -0.5 3.6875 -0.5q3.609375 0 5.609375 1.703125q2.0 1.703125 2.0 5.3125l0 9.0l-4.28125 0zm-4.8125 0.234375q-1.859375 0 -3.171875 -0.625q-1.3125 -0.640625 -2.03125 -1.71875q-0.703125 -1.09375 -0.703125 -2.4375q0 -1.40625 0.6875 -2.453125q0.703125 -1.0625 2.1875 -1.65625q1.5 -0.609375 3.90625 -0.609375l4.1875 0l0 2.671875l-3.6875 0q-1.609375 0 -2.21875 0.53125q-0.59375 0.515625 -0.59375 1.3125q0 0.875 0.6875 1.390625q0.6875 0.515625 1.890625 0.515625q1.140625 0 2.046875 -0.546875q0.921875 -0.546875 1.328125 -1.59375l0.703125 2.109375q-0.5 1.53125 -1.828125 2.328125q-1.3125 0.78125 -3.390625 0.78125zm20.962769 0q-2.546875 0 -4.546875 -1.03125q-1.984375 -1.046875 -3.125 -2.890625q-1.125 -1.859375 -1.125 -4.203125q0 -2.375 1.125 -4.203125q1.140625 -1.84375 3.125 -2.875q2.0 -1.046875 4.546875 -1.046875q2.5 0 4.34375 1.046875q1.84375 1.03125 2.734375 2.96875l-3.5625 1.90625q-0.609375 -1.109375 -1.53125 -1.640625q-0.921875 -0.53125 -2.015625 -0.53125q-1.171875 0 -2.109375 0.53125q-0.9375 0.53125 -1.484375 1.5q-0.53125 0.96875 -0.53125 2.34375q0 1.375 0.53125 2.34375q0.546875 0.96875 1.484375 1.5q0.9375 0.53125 2.109375 0.53125q1.09375 0 2.015625 -0.515625q0.921875 -0.515625 1.53125 -1.65625l3.5625 1.9375q-0.890625 1.90625 -2.734375 2.953125q-1.84375 1.03125 -4.34375 1.03125zm17.330688 0q-2.6875 0 -4.734375 -1.046875q-2.03125 -1.0625 -3.15625 -2.890625q-1.109375 -1.84375 -1.109375 -4.1875q0 -2.375 1.09375 -4.203125q1.109375 -1.84375 3.015625 -2.875q1.90625 -1.046875 4.3125 -1.046875q2.3125 0 4.171875 0.984375q1.859375 0.984375 2.9375 2.828125q1.09375 1.828125 1.09375 4.375q0 0.265625 -0.03125 0.609375q-0.015625 0.328125 -0.046875 0.625l-12.828125 0l0 -2.671875l10.421875 0l-1.765625 0.796875q0 -1.234375 -0.5 -2.140625q-0.5 -0.921875 -1.375 -1.421875q-0.875 -0.515625 -2.046875 -0.515625q-1.171875 0 -2.078125 0.515625q-0.890625 0.5 -1.390625 1.4375q-0.5 0.921875 -0.5 2.171875l0 0.703125q0 1.296875 0.5625 2.28125q0.578125 0.984375 1.625 1.5q1.046875 0.5 2.453125 0.5q1.265625 0 2.21875 -0.375q0.953125 -0.375 1.734375 -1.140625l2.4375 2.640625q-1.078125 1.234375 -2.734375 1.890625q-1.640625 0.65625 -3.78125 0.65625zm15.9904175 0q-2.03125 0 -3.890625 -0.484375q-1.859375 -0.484375 -2.9375 -1.21875l1.515625 -3.28125q1.09375 0.671875 2.5625 1.109375q1.484375 0.421875 2.921875 0.421875q1.59375 0 2.25 -0.375q0.65625 -0.390625 0.65625 -1.0625q0 -0.5625 -0.515625 -0.84375q-0.515625 -0.28125 -1.375 -0.421875q-0.84375 -0.15625 -1.859375 -0.296875q-1.0 -0.140625 -2.03125 -0.390625q-1.015625 -0.25 -1.875 -0.75q-0.84375 -0.5 -1.359375 -1.34375q-0.515625 -0.859375 -0.515625 -2.203125q0 -1.5 0.859375 -2.640625q0.875 -1.140625 2.515625 -1.796875q1.640625 -0.671875 3.921875 -0.671875q1.625 0 3.296875 0.359375q1.671875 0.34375 2.78125 1.015625l-1.53125 3.265625q-1.140625 -0.671875 -2.296875 -0.921875q-1.15625 -0.25 -2.25 -0.25q-1.515625 0 -2.21875 0.40625q-0.703125 0.40625 -0.703125 1.046875q0 0.59375 0.5 0.890625q0.515625 0.296875 1.359375 0.46875q0.859375 0.171875 1.875 0.3125q1.015625 0.125 2.03125 0.390625q1.03125 0.265625 1.859375 0.75q0.84375 0.484375 1.375 1.328125q0.53125 0.828125 0.53125 2.171875q0 1.46875 -0.890625 2.59375q-0.875 1.125 -2.53125 1.78125q-1.65625 0.640625 -4.03125 0.640625z" fill-rule="nonzero"/><path fill="#312f41" d="m538.6852 265.3679l0 -20.531265l9.328125 0q3.34375 0 5.890625 1.28125q2.546875 1.265625 3.984375 3.5625q1.4375 2.28125 1.4375 5.421875q0 3.1093903 -1.4375 5.4218903q-1.4375 2.296875 -3.984375 3.578125q-2.546875 1.265625 -5.890625 1.265625l-9.328125 0zm4.75 -3.90625l4.34375 0q2.046875 0 3.546875 -0.765625q1.515625 -0.78125 2.34375 -2.21875q0.84375 -1.4375 0.84375 -3.3750153q0 -1.96875 -0.84375 -3.390625q-0.828125 -1.421875 -2.34375 -2.1875q-1.5 -0.78125 -3.546875 -0.78125l-4.34375 0l0 12.718765zm28.834412 3.90625l0 -3.078125l-0.296875 -0.671875l0 -5.515625q0 -1.4687653 -0.90625 -2.2812653q-0.890625 -0.828125 -2.734375 -0.828125q-1.265625 0 -2.484375 0.40625q-1.203125 0.390625 -2.0625 1.0625l-1.640625 -3.203125q1.296875 -0.90625 3.109375 -1.40625q1.8125 -0.5 3.6875 -0.5q3.609375 0 5.609375 1.703125q2.0 1.703125 2.0 5.3125153l0 9.0l-4.28125 0zm-4.8125 0.234375q-1.859375 0 -3.171875 -0.625q-1.3125 -0.640625 -2.03125 -1.71875q-0.703125 -1.09375 -0.703125 -2.4375q0 -1.40625 0.6875 -2.453125q0.703125 -1.0625 2.1875 -1.65625q1.5 -0.609375 3.90625 -0.609375l4.1875 0l0 2.671875l-3.6875 0q-1.609375 0 -2.21875 0.53125q-0.59375 0.515625 -0.59375 1.3125q0 0.875 0.6875 1.390625q0.6875 0.515625 1.890625 0.515625q1.140625 0 2.046875 -0.546875q0.921875 -0.546875 1.328125 -1.59375l0.703125 2.109375q-0.5 1.53125 -1.828125 2.328125q-1.3125 0.78125 -3.390625 0.78125zm19.673584 0q-2.78125 0 -4.34375 -1.421875q-1.546875 -1.421875 -1.546875 -4.234375l0 -13.843765l4.578125 0l0 13.781265q0 1.0 0.515625 1.546875q0.53125 0.53125 1.4375 0.53125q1.09375 0 1.859375 -0.578125l1.21875 3.21875q-0.703125 0.5 -1.6875 0.75q-0.96875 0.25 -2.03125 0.25zm-8.328125 -12.500015l0 -3.515625l10.9375 0l0 3.515625l-10.9375 0zm23.792236 12.26564l0 -3.078125l-0.296875 -0.671875l0 -5.515625q0 -1.4687653 -0.90625 -2.2812653q-0.890625 -0.828125 -2.734375 -0.828125q-1.265625 0 -2.484375 0.40625q-1.203125 0.390625 -2.0625 1.0625l-1.640625 -3.203125q1.296875 -0.90625 3.109375 -1.40625q1.8125 -0.5 3.6875 -0.5q3.609375 0 5.609375 1.703125q2.0 1.703125 2.0 5.3125153l0 9.0l-4.28125 0zm-4.8125 0.234375q-1.859375 0 -3.171875 -0.625q-1.3125 -0.640625 -2.03125 -1.71875q-0.703125 -1.09375 -0.703125 -2.4375q0 -1.40625 0.6875 -2.453125q0.703125 -1.0625 2.1875 -1.65625q1.5 -0.609375 3.90625 -0.609375l4.1875 0l0 2.671875l-3.6875 0q-1.609375 0 -2.21875 0.53125q-0.59375 0.515625 -0.59375 1.3125q0 0.875 0.6875 1.390625q0.6875 0.515625 1.890625 0.515625q1.140625 0 2.046875 -0.546875q0.921875 -0.546875 1.328125 -1.59375l0.703125 2.109375q-0.5 1.53125 -1.828125 2.328125q-1.3125 0.78125 -3.390625 0.78125zm25.801514 -0.234375l-6.625 -15.781265l4.71875 0l5.515625 13.57814l-2.34375 0l5.71875 -13.57814l4.390625 0l-6.65625 15.781265l-4.71875 0zm13.256958 0l0 -15.781265l4.578125 0l0 15.781265l-4.578125 0zm2.28125 -17.98439q-1.265625 0 -2.0625 -0.71875q-0.78125 -0.734375 -0.78125 -1.828125q0 -1.078125 0.78125 -1.8125q0.796875 -0.734375 2.0625 -0.734375q1.265625 0 2.046875 0.6875q0.796875 0.6875 0.796875 1.765625q0 1.15625 -0.78125 1.90625q-0.765625 0.734375 -2.0625 0.734375zm11.859009 18.218765q-2.03125 0 -3.890625 -0.484375q-1.859375 -0.484375 -2.9375 -1.21875l1.515625 -3.28125q1.09375 0.671875 2.5625 1.109375q1.484375 0.421875 2.921875 0.421875q1.59375 0 2.25 -0.375q0.65625 -0.390625 0.65625 -1.0625q0 -0.5625 -0.515625 -0.84375q-0.515625 -0.28125 -1.375 -0.421875q-0.84375 -0.15625 -1.859375 -0.296875q-1.0 -0.140625 -2.03125 -0.390625q-1.015625 -0.25 -1.875 -0.75q-0.84375 -0.5 -1.359375 -1.34375q-0.515625 -0.85939026 -0.515625 -2.2031403q0 -1.5 0.859375 -2.640625q0.875 -1.140625 2.515625 -1.796875q1.640625 -0.671875 3.921875 -0.671875q1.625 0 3.296875 0.359375q1.671875 0.34375 2.78125 1.015625l-1.53125 3.265625q-1.140625 -0.671875 -2.296875 -0.921875q-1.15625 -0.25 -2.25 -0.25q-1.515625 0 -2.21875 0.40625q-0.703125 0.40625 -0.703125 1.046875q0 0.59375 0.5 0.890625q0.515625 0.296875 1.359375 0.46875q0.859375 0.171875 1.875 0.3125q1.015625 0.12501526 2.03125 0.39064026q1.03125 0.265625 1.859375 0.75q0.84375 0.484375 1.375 1.328125q0.53125 0.828125 0.53125 2.171875q0 1.46875 -0.890625 2.59375q-0.875 1.125 -2.53125 1.78125q-1.65625 0.640625 -4.03125 0.640625zm16.916992 0q-1.96875 0 -3.515625 -0.765625q-1.53125 -0.765625 -2.375 -2.328125q-0.84375 -1.5625 -0.84375 -4.0l0 -8.92189l4.5625 0l0 8.250015q0 1.953125 0.828125 2.890625q0.84375 0.921875 2.375 0.921875q1.046875 0 1.875 -0.453125q0.828125 -0.46875 1.296875 -1.421875q0.46875 -0.953125 0.46875 -2.390625l0 -7.7968903l4.5625 0l0 15.781265l-4.328125 0l0 -4.34375l0.78125 1.265625q-0.78125 1.640625 -2.328125 2.484375q-1.53125 0.828125 -3.359375 0.828125zm23.179626 -0.234375l0 -3.078125l-0.296875 -0.671875l0 -5.515625q0 -1.4687653 -0.90625 -2.2812653q-0.890625 -0.828125 -2.734375 -0.828125q-1.265625 0 -2.484375 0.40625q-1.203125 0.390625 -2.0625 1.0625l-1.640625 -3.203125q1.296875 -0.90625 3.109375 -1.40625q1.8125 -0.5 3.6875 -0.5q3.609375 0 5.609375 1.703125q2.0 1.703125 2.0 5.3125153l0 9.0l-4.28125 0zm-4.8125 0.234375q-1.859375 0 -3.171875 -0.625q-1.3125 -0.640625 -2.03125 -1.71875q-0.703125 -1.09375 -0.703125 -2.4375q0 -1.40625 0.6875 -2.453125q0.703125 -1.0625 2.1875 -1.65625q1.5 -0.609375 3.90625 -0.609375l4.1875 0l0 2.671875l-3.6875 0q-1.609375 0 -2.21875 0.53125q-0.59375 0.515625 -0.59375 1.3125q0 0.875 0.6875 1.390625q0.6875 0.515625 1.890625 0.515625q1.140625 0 2.046875 -0.546875q0.921875 -0.546875 1.328125 -1.59375l0.703125 2.109375q-0.5 1.53125 -1.828125 2.328125q-1.3125 0.78125 -3.390625 0.78125zm13.220459 -0.234375l0 -21.76564l4.578125 0l0 21.76564l-4.578125 0zm8.827759 0l0 -15.781265l4.578125 0l0 15.781265l-4.578125 0zm2.28125 -17.98439q-1.265625 0 -2.0625 -0.71875q-0.78125 -0.734375 -0.78125 -1.828125q0 -1.078125 0.78125 -1.8125q0.796875 -0.734375 2.0625 -0.734375q1.265625 0 2.046875 0.6875q0.796875 0.6875 0.796875 1.765625q0 1.15625 -0.78125 1.90625q-0.765625 0.734375 -2.0625 0.734375zm5.468384 17.98439l0 -2.75l9.328125 -11.031265l0.78125 1.515625l-9.90625 0l0 -3.515625l13.609375 0l0 2.765625l-9.328125 11.01564l-0.828125 -1.515625l10.421875 0l0 3.515625l-14.078125 0zm26.690796 0l0 -3.078125l-0.296875 -0.671875l0 -5.515625q0 -1.4687653 -0.90625 -2.2812653q-0.890625 -0.828125 -2.734375 -0.828125q-1.265625 0 -2.484375 0.40625q-1.203125 0.390625 -2.0625 1.0625l-1.640625 -3.203125q1.296875 -0.90625 3.109375 -1.40625q1.8125 -0.5 3.6875 -0.5q3.609375 0 5.609375 1.703125q2.0 1.703125 2.0 5.3125153l0 9.0l-4.28125 0zm-4.8125 0.234375q-1.859375 0 -3.171875 -0.625q-1.3125 -0.640625 -2.03125 -1.71875q-0.703125 -1.09375 -0.703125 -2.4375q0 -1.40625 0.6875 -2.453125q0.703125 -1.0625 2.1875 -1.65625q1.5 -0.609375 3.90625 -0.609375l4.1875 0l0 2.671875l-3.6875 0q-1.609375 0 -2.21875 0.53125q-0.59375 0.515625 -0.59375 1.3125q0 0.875 0.6875 1.390625q0.6875 0.515625 1.890625 0.515625q1.140625 0 2.046875 -0.546875q0.921875 -0.546875 1.328125 -1.59375l0.703125 2.109375q-0.5 1.53125 -1.828125 2.328125q-1.3125 0.78125 -3.390625 0.78125zm19.673584 0q-2.78125 0 -4.34375 -1.421875q-1.546875 -1.421875 -1.546875 -4.234375l0 -13.843765l4.578125 0l0 13.781265q0 1.0 0.515625 1.546875q0.53125 0.53125 1.4375 0.53125q1.09375 0 1.859375 -0.578125l1.21875 3.21875q-0.703125 0.5 -1.6875 0.75q-0.96875 0.25 -2.03125 0.25zm-8.328125 -12.500015l0 -3.515625l10.9375 0l0 3.515625l-10.9375 0zm14.63269 12.26564l0 -15.781265l4.578125 0l0 15.781265l-4.578125 0zm2.28125 -17.98439q-1.265625 0 -2.0625 -0.71875q-0.78125 -0.734375 -0.78125 -1.828125q0 -1.078125 0.78125 -1.8125q0.796875 -0.734375 2.0625 -0.734375q1.265625 0 2.046875 0.6875q0.796875 0.6875 0.796875 1.765625q0 1.15625 -0.78125 1.90625q-0.765625 0.734375 -2.0625 0.734375zm14.062134 18.218765q-2.53125 0 -4.484375 -1.046875q-1.9375 -1.0625 -3.078125 -2.890625q-1.125 -1.84375 -1.125 -4.1875q0 -2.3750153 1.125 -4.2031403q1.140625 -1.84375 3.078125 -2.875q1.953125 -1.046875 4.484375 -1.046875q2.484375 0 4.453125 1.046875q1.96875 1.03125 3.078125 2.859375q1.109375 1.8125 1.109375 4.2187653q0 2.34375 -1.109375 4.1875q-1.109375 1.828125 -3.078125 2.890625q-1.96875 1.046875 -4.453125 1.046875zm0 -3.75q1.140625 0 2.046875 -0.53125q0.90625 -0.53125 1.4375 -1.515625q0.53125 -0.984375 0.53125 -2.328125q0 -1.375 -0.53125 -2.3437653q-0.53125 -0.96875 -1.4375 -1.5q-0.90625 -0.53125 -2.046875 -0.53125q-1.15625 0 -2.0625 0.53125q-0.90625 0.53125 -1.453125 1.5q-0.53125 0.96876526 -0.53125 2.3437653q0 1.34375 0.53125 2.328125q0.546875 0.984375 1.453125 1.515625q0.90625 0.53125 2.0625 0.53125zm11.694275 3.515625l0 -15.781265l4.375 0l0 4.375l-0.828125 -1.328125q0.859375 -1.578125 2.4375 -2.421875q1.578125 -0.859375 3.609375 -0.859375q1.875 0 3.359375 0.75q1.484375 0.75 2.328125 2.296875q0.84375 1.53125 0.84375 3.9375153l0 9.03125l-4.5625 0l0 -8.328125q0 -1.9062653 -0.84375 -2.8125153q-0.828125 -0.90625 -2.359375 -0.90625q-1.078125 0 -1.953125 0.453125q-0.859375 0.453125 -1.34375 1.390625q-0.484375 0.93751526 -0.484375 2.4062653l0 7.796875l-4.578125 0z" fill-rule="nonzero"/><path fill="#312f41" d="m545.6383 300.97412q-2.640625 0 -4.4375 -0.96875q-1.78125 -0.984375 -2.71875 -2.6875q-0.921875 -1.703125 -0.921875 -3.84375l0 -0.890625l2.46875 0l0 0.71875q0 2.65625 1.5 4.03125q1.5 1.359375 4.109375 1.359375q2.28125 0 3.4375 -1.03125q1.15625 -1.03125 1.15625 -2.671875l0 -0.171875q0 -1.609375 -1.1875 -2.453125q-1.1875 -0.859375 -3.859375 -1.234375q-3.078125 -0.453125 -4.90625 -1.75q-1.828125 -1.3125 -1.828125 -3.953125l0 -0.34375q0 -1.609375 0.859375 -2.828125q0.875 -1.21875 2.390625 -1.921875q1.53125 -0.703125 3.515625 -0.703125q2.328125 0 3.953125 0.859375q1.625 0.84375 2.484375 2.234375q0.875 1.390625 0.875 3.0625l0 1.234375l-2.46875 0l0 -1.0625q0 -1.34375 -0.671875 -2.234375q-0.671875 -0.90625 -1.796875 -1.359375q-1.109375 -0.453125 -2.40625 -0.453125q-1.109375 0 -2.09375 0.390625q-0.984375 0.375 -1.59375 1.09375q-0.59375 0.71875 -0.59375 1.78125l0 0.171875q0 1.703125 1.375 2.484375q1.390625 0.765625 4.140625 1.171875q3.234375 0.46875 4.75 1.890625q1.53125 1.40625 1.53125 3.75l0 0.34375q0 2.671875 -1.8125 4.328125q-1.796875 1.65625 -5.25 1.65625zm10.589478 5.453125l0 -20.40625l2.28125 0l0 2.28125l0.34375 0q0.765625 -1.3125 2.109375 -2.0q1.359375 -0.6875 2.9375 -0.6875q1.796875 0 3.3125 0.859375q1.53125 0.859375 2.453125 2.53125q0.921875 1.65625 0.921875 4.0l0 0.578125q0 2.375 -0.90625 4.03125q-0.90625 1.640625 -2.453125 2.5q-1.53125 0.859375 -3.375 0.859375q-1.421875 0 -2.828125 -0.65625q-1.40625 -0.65625 -2.171875 -1.984375l-0.34375 0l0 8.09375l-2.28125 0zm7.15625 -7.625q2.078125 0 3.46875 -1.40625q1.390625 -1.40625 1.390625 -3.8125l0 -0.578125q0 -1.5625 -0.65625 -2.734375q-0.640625 -1.171875 -1.734375 -1.828125q-1.09375 -0.65625 -2.46875 -0.65625q-1.359375 0 -2.46875 0.6875q-1.09375 0.6875 -1.75 1.890625q-0.65625 1.203125 -0.65625 2.75l0 0.359375q0 1.609375 0.640625 2.8125q0.65625 1.203125 1.765625 1.859375q1.109375 0.65625 2.46875 0.65625zm16.948792 2.171875q-1.90625 0 -3.453125 -0.859375q-1.53125 -0.859375 -2.453125 -2.515625q-0.90625 -1.671875 -0.90625 -4.0625l0 -0.484375q0 -2.375 0.90625 -4.046875q0.921875 -1.671875 2.453125 -2.53125q1.546875 -0.859375 3.390625 -0.859375q1.5 0 2.703125 0.65625q1.21875 0.65625 1.921875 2.03125l0.359375 0l0 -2.28125l2.28125 0l0 11.5625q0 0.875 0.796875 0.875l0.734375 0l0 2.109375l-1.546875 0q-0.921875 0 -1.59375 -0.578125q-0.671875 -0.59375 -0.671875 -1.890625l-0.359375 0q-0.703125 1.4375 -1.953125 2.15625q-1.234375 0.71875 -2.609375 0.71875zm0.234375 -2.171875q2.046875 0 3.359375 -1.453125q1.328125 -1.46875 1.328125 -3.875l0 -0.359375q0 -1.546875 -0.625 -2.75q-0.609375 -1.203125 -1.671875 -1.890625q-1.046875 -0.6875 -2.390625 -0.6875q-1.359375 0 -2.421875 0.65625q-1.046875 0.65625 -1.671875 1.84375q-0.609375 1.1875 -0.609375 2.765625l0 0.484375q0 2.453125 1.3125 3.859375q1.328125 1.40625 3.390625 1.40625zm18.761292 2.171875q-2.015625 0 -3.71875 -0.859375q-1.703125 -0.859375 -2.75 -2.53125q-1.03125 -1.671875 -1.03125 -4.046875l0 -0.359375q0 -2.34375 1.03125 -4.046875q1.046875 -1.703125 2.75 -2.609375q1.703125 -0.90625 3.71875 -0.90625q1.859375 0 3.296875 0.71875q1.453125 0.71875 2.375 1.984375q0.9375 1.25 1.1875 2.859375l-2.28125 0.53125q-0.109375 -1.03125 -0.671875 -1.921875q-0.5625 -0.890625 -1.546875 -1.4375q-0.984375 -0.5625 -2.40625 -0.5625q-1.421875 0 -2.578125 0.6875q-1.15625 0.6875 -1.84375 1.90625q-0.6875 1.21875 -0.6875 2.796875l0 0.359375q0 1.640625 0.6875 2.828125q0.6875 1.1875 1.859375 1.8125q1.171875 0.625 2.609375 0.625q1.4375 0 2.421875 -0.5625q0.984375 -0.578125 1.515625 -1.46875q0.546875 -0.890625 0.703125 -1.890625l2.28125 0.53125q-0.296875 1.609375 -1.203125 2.875q-0.90625 1.25 -2.359375 1.96875q-1.453125 0.71875 -3.359375 0.71875zm17.745667 0q-2.078125 0 -3.6875 -0.953125q-1.59375 -0.953125 -2.5 -2.640625q-0.90625 -1.6875 -0.90625 -3.90625l0 -0.703125q0 -2.0625 0.9375 -3.671875q0.9375 -1.609375 2.5625 -2.546875q1.625 -0.9375 3.65625 -0.9375q1.78125 0 3.078125 0.640625q1.3125 0.640625 2.140625 1.640625q0.84375 1.0 1.234375 2.125q0.40625 1.125 0.40625 2.09375l0 1.890625l-11.734375 0q0.09375 2.140625 1.359375 3.46875q1.28125 1.328125 3.515625 1.328125q2.078125 0 3.109375 -0.875q1.03125 -0.875 1.40625 -2.109375l2.171875 0.578125q-0.625 2.03125 -2.28125 3.3125q-1.65625 1.265625 -4.46875 1.265625zm-4.75 -9.09375l9.390625 0q-0.0625 -1.25 -0.734375 -2.171875q-0.65625 -0.9375 -1.6875 -1.421875q-1.015625 -0.5 -2.15625 -0.5q-1.9375 0 -3.265625 1.171875q-1.3125 1.171875 -1.546875 2.921875zm32.960144 8.6875l0 -20.53125l4.703125 0l2.75 19.46875l0.359375 0l2.75 -19.46875l4.6875 0l0 20.53125l-2.28125 0l0 -19.46875l-0.359375 0l-2.75 19.46875l-4.453125 0l-2.765625 -19.46875l-0.34375 0l0 19.46875l-2.296875 0zm25.573792 0.40625q-1.9375 0 -3.59375 -0.875q-1.65625 -0.875 -2.6875 -2.546875q-1.015625 -1.671875 -1.015625 -4.078125l0 -0.359375q0 -2.375 1.015625 -4.0625q1.03125 -1.6875 2.6875 -2.5625q1.65625 -0.875 3.59375 -0.875q1.9375 0 3.59375 0.875q1.65625 0.875 2.6875 2.5625q1.03125 1.6875 1.03125 4.0625l0 0.359375q0 2.40625 -1.03125 4.078125q-1.03125 1.671875 -2.6875 2.546875q-1.65625 0.875 -3.59375 0.875zm0 -2.171875q1.40625 0 2.515625 -0.640625q1.125 -0.640625 1.78125 -1.84375q0.671875 -1.203125 0.671875 -2.84375l0 -0.359375q0 -1.578125 -0.671875 -2.78125q-0.65625 -1.203125 -1.78125 -1.875q-1.125 -0.671875 -2.515625 -0.671875q-1.375 0 -2.5 0.671875q-1.125 0.671875 -1.796875 1.875q-0.65625 1.203125 -0.65625 2.78125l0 0.359375q0 1.640625 0.65625 2.84375q0.671875 1.203125 1.796875 1.84375q1.125 0.640625 2.5 0.640625zm11.5269165 1.765625l0 -14.546875l2.296875 0l0 2.46875l0.34375 0q1.359375 -2.875 4.703125 -2.875q2.515625 0 4.0 1.578125q1.5 1.5625 1.5 4.6875l0 8.6875l-2.28125 0l0 -8.21875q0 -2.28125 -1.03125 -3.421875q-1.015625 -1.140625 -2.78125 -1.140625q-2.046875 0 -3.25 1.421875q-1.203125 1.421875 -1.203125 3.796875l0 7.5625l-2.296875 0zm24.370728 0.40625q-1.9375 0 -3.59375 -0.875q-1.65625 -0.875 -2.6875 -2.546875q-1.015625 -1.671875 -1.015625 -4.078125l0 -0.359375q0 -2.375 1.015625 -4.0625q1.03125 -1.6875 2.6875 -2.5625q1.65625 -0.875 3.59375 -0.875q1.9375 0 3.59375 0.875q1.65625 0.875 2.6875 2.5625q1.03125 1.6875 1.03125 4.0625l0 0.359375q0 2.40625 -1.03125 4.078125q-1.03125 1.671875 -2.6875 2.546875q-1.65625 0.875 -3.59375 0.875zm0 -2.171875q1.40625 0 2.515625 -0.640625q1.125 -0.640625 1.78125 -1.84375q0.671875 -1.203125 0.671875 -2.84375l0 -0.359375q0 -1.578125 -0.671875 -2.78125q-0.65625 -1.203125 -1.78125 -1.875q-1.125 -0.671875 -2.515625 -0.671875q-1.375 0 -2.5 0.671875q-1.125 0.671875 -1.796875 1.875q-0.65625 1.203125 -0.65625 2.78125l0 0.359375q0 1.640625 0.65625 2.84375q0.671875 1.203125 1.796875 1.84375q1.125 0.640625 2.5 0.640625z" fill-rule="nonzero"/><path fill="#000000" fill-opacity="0.0" d="m16.989511 23.055119l605.19684 0l0 177.95276l-605.19684 0z" fill-rule="evenodd"/><path fill="#312f41" d="m50.72389 40.33762q-4.21875 -2.390625 -8.78125 -2.90625l0 25.34375l-5.546875 0l0 -25.34375q-4.609377 0.515625 -8.828127 2.90625l-1.921875 -4.265625q2.984375 -1.796875 6.421877 -2.6875q3.4375 -0.890625 7.0625 -0.890625q3.625 0 7.078125 0.890625q3.453125 0.890625 6.4375 2.6875l-1.921875 4.265625zm26.363354 -0.34375l0 19.328125q0 12.031246 -11.8125 12.031246q-3.1093712 0 -5.953121 -0.84375q-2.828125 -0.828125 -4.671875 -2.40625l2.390625 -4.0q1.453125 1.234375 3.546875 1.953125q2.09375 0.734375 4.390621 0.734375q3.5 0 5.140625 -1.6875q1.640625 -1.6874962 1.640625 -5.187496l0 -1.0625q-1.28125 1.40625 -3.125 2.15625q-1.828125 0.734375 -3.953125 0.734375q-4.562496 0 -7.187496 -2.515625q-2.625 -2.515625 -2.625 -7.546875l0 -11.6875l5.328125 0l0 11.015625q0 3.015625 1.390625 4.53125q1.390625 1.515625 3.9374962 1.515625q2.859375 0 4.546875 -1.75q1.6875 -1.75 1.6875 -5.078125l0 -10.234375l5.328125 0zm19.626984 -0.25q3.328125 0 5.953125 1.453125q2.625 1.4375 4.109375 4.09375q1.5 2.640625 1.5 6.09375q0 3.453125 -1.5 6.125q-1.484375 2.65625 -4.109375 4.109375q-2.625 1.453125 -5.953125 1.453125q-4.609375 0 -7.296875 -3.0625l0 11.046871l-5.328125 0l0 -31.062496l5.078125 0l0 2.984375q1.3125 -1.609375 3.25 -2.421875q1.953125 -0.8125 4.296875 -0.8125zm-0.59375 18.765625q2.9375 0 4.828125 -1.953125q1.90625 -1.96875 1.90625 -5.171875q0 -3.203125 -1.90625 -5.15625q-1.890625 -1.96875 -4.828125 -1.96875q-1.921875 0 -3.46875 0.875q-1.53125 0.875 -2.421875 2.5q-0.890625 1.625 -0.890625 3.75q0 2.140625 0.890625 3.765625q0.890625 1.609375 2.421875 2.484375q1.546875 0.875 3.46875 0.875zm27.465271 4.5625q-3.453125 0 -6.234375 -1.484375q-2.765625 -1.5 -4.328125 -4.15625q-1.546875 -2.671875 -1.546875 -6.046875q0 -3.375 1.546875 -6.015625q1.5625 -2.640625 4.328125 -4.125q2.78125 -1.5 6.234375 -1.5q3.5 0 6.2656326 1.5q2.78125 1.484375 4.328125 4.125q1.5625 2.640625 1.5625 6.015625q0 3.375 -1.5625 6.046875q-1.546875 2.65625 -4.328125 4.15625q-2.7656326 1.484375 -6.2656326 1.484375zm0 -4.5625q2.9375 0 4.8593826 -1.953125q1.921875 -1.96875 1.921875 -5.171875q0 -3.203125 -1.921875 -5.15625q-1.9218826 -1.96875 -4.8593826 -1.96875q-2.9375 0 -4.84375 1.96875q-1.890625 1.953125 -1.890625 5.15625q0 3.203125 1.890625 5.171875q1.90625 1.953125 4.84375 1.953125zm39.888252 -18.515625l0 19.328125q0 12.031246 -12.28125 12.031246q-3.296875 0 -6.234375 -0.84375q-2.9375 -0.828125 -4.859375 -2.40625l2.390625 -4.0q1.484375 1.234375 3.765625 1.96875q2.28125 0.75 4.625 0.75q3.765625 0 5.515625 -1.703125q1.75 -1.7031212 1.75 -5.203121l0 -1.1875q-1.375 1.484375 -3.34375 2.25q-1.953125 0.765625 -4.296875 0.765625q-3.25 0 -5.875 -1.375q-2.609375 -1.390625 -4.125 -3.90625q-1.515625 -2.515625 -1.515625 -5.765625q0 -3.234375 1.515625 -5.71875q1.515625 -2.5 4.125 -3.859375q2.625 -1.375 5.875 -1.375q2.46875 0 4.5 0.8125q2.03125 0.8125 3.390625 2.46875l0 -3.03125l5.078125 0zm-12.15625 17.234375q3.03125 0 4.96875 -1.8125q1.9375 -1.8125 1.9375 -4.71875q0 -2.84375 -1.9375 -4.640625q-1.9375 -1.796875 -4.96875 -1.796875q-3.078125 0 -5.015625 1.796875q-1.9375 1.796875 -1.9375 4.640625q0 2.90625 1.9375 4.71875q1.9375 1.8125 5.015625 1.8125zm24.228394 -13.90625q2.296875 -3.578125 8.09375 -3.578125l0 5.078125q-0.671875 -0.140625 -1.234375 -0.140625q-3.109375 0 -4.859375 1.828125q-1.75 1.8125 -1.75 5.21875l0 11.046875l-5.328125 0l0 -22.78125l5.078125 0l0 3.328125zm34.676437 -3.328125l0 22.78125l-5.078125 0l0 -2.9375q-1.328125 1.609375 -3.265625 2.421875q-1.9375 0.8125 -4.28125 0.8125q-3.328125 0 -5.953125 -1.453125q-2.625 -1.453125 -4.09375 -4.09375q-1.46875 -2.640625 -1.46875 -6.140625q0 -3.5 1.46875 -6.125q1.46875 -2.625 4.09375 -4.0625q2.625 -1.453125 5.953125 -1.453125q2.21875 0 4.0625 0.765625q1.859375 0.765625 3.234375 2.265625l0 -2.78125l5.328125 0zm-12.03125 18.515625q2.9375 0 4.859375 -1.953125q1.921875 -1.96875 1.921875 -5.171875q0 -3.203125 -1.921875 -5.15625q-1.921875 -1.96875 -4.859375 -1.96875q-2.9375 0 -4.84375 1.96875q-1.890625 1.953125 -1.890625 5.15625q0 3.203125 1.890625 5.171875q1.90625 1.953125 4.84375 1.953125zm31.652771 -18.765625q3.328125 0 5.953125 1.453125q2.625 1.4375 4.109375 4.09375q1.5 2.640625 1.5 6.09375q0 3.453125 -1.5 6.125q-1.484375 2.65625 -4.109375 4.109375q-2.625 1.453125 -5.953125 1.453125q-4.609375 0 -7.296875 -3.0625l0 11.046871l-5.328125 0l0 -31.062496l5.078125 0l0 2.984375q1.3125 -1.609375 3.25 -2.421875q1.953125 -0.8125 4.296875 -0.8125zm-0.59375 18.765625q2.9375 0 4.828125 -1.953125q1.90625 -1.96875 1.90625 -5.171875q0 -3.203125 -1.90625 -5.15625q-1.890625 -1.96875 -4.828125 -1.96875q-1.921875 0 -3.46875 0.875q-1.53125 0.875 -2.421875 2.5q-0.890625 1.625 -0.890625 3.75q0 2.140625 0.890625 3.765625q0.890625 1.609375 2.421875 2.484375q1.546875 0.875 3.46875 0.875zm30.152756 -18.765625q4.3125 0 6.90625 2.515625q2.609375 2.515625 2.609375 7.46875l0 13.046875l-5.328125 0l0 -12.375q0 -2.984375 -1.421875 -4.5q-1.40625 -1.515625 -4.0 -1.515625q-2.9374847 0 -4.6562347 1.78125q-1.703125 1.765625 -1.703125 5.09375l0 11.515625l-5.328125 0l0 -31.65625l5.328125 0l0 11.515625q1.328125 -1.40625 3.265625 -2.140625q1.9374847 -0.75 4.3281097 -0.75zm38.344482 0.25l0 19.328125q0 12.031246 -11.8125 12.031246q-3.109375 0 -5.953125 -0.84375q-2.828125 -0.828125 -4.671875 -2.40625l2.390625 -4.0q1.453125 1.234375 3.546875 1.953125q2.09375 0.734375 4.390625 0.734375q3.5 0 5.140625 -1.6875q1.640625 -1.6874962 1.640625 -5.187496l0 -1.0625q-1.28125 1.40625 -3.125 2.15625q-1.828125 0.734375 -3.953125 0.734375q-4.5625 0 -7.1875 -2.515625q-2.625 -2.515625 -2.625 -7.546875l0 -11.6875l5.328125 0l0 11.015625q0 3.015625 1.390625 4.53125q1.390625 1.515625 3.9375 1.515625q2.859375 0 4.546875 -1.75q1.6875 -1.75 1.6875 -5.078125l0 -10.234375l5.328125 0z" fill-rule="nonzero"/><path fill="#000000" fill-opacity="0.0" d="m53.249344 193.00787l376.56696 0l0 279.68503l-376.56696 0z" fill-rule="evenodd"/><path fill="#312f41" d="m78.76497 230.16788l0 -20.53125l4.75 0l0 20.53125l-4.75 0zm-14.078125 0l0 -20.53125l4.75 0l0 20.53125l-4.75 0zm4.390625 -8.421875l0 -4.015625l10.03125 0l0 4.015625l-10.03125 0zm26.806488 8.65625q-2.6875 0 -4.734375 -1.046875q-2.03125 -1.0625 -3.15625 -2.890625q-1.109375 -1.84375 -1.109375 -4.1875q0 -2.375 1.09375 -4.203125q1.109375 -1.84375 3.015625 -2.875q1.90625 -1.046875 4.3125 -1.046875q2.3125 0 4.171875 0.984375q1.859375 0.984375 2.9375 2.828125q1.09375 1.828125 1.09375 4.375q0 0.265625 -0.03125 0.609375q-0.015625 0.328125 -0.046875 0.625l-12.828125 0l0 -2.671875l10.421875 0l-1.765625 0.796875q0 -1.234375 -0.5 -2.140625q-0.5 -0.921875 -1.375 -1.421875q-0.875 -0.515625 -2.046875 -0.515625q-1.171875 0 -2.078125 0.515625q-0.890625 0.5 -1.390625 1.4375q-0.5 0.921875 -0.5 2.171875l0 0.703125q0 1.296875 0.5625 2.28125q0.578125 0.984375 1.625 1.5q1.046875 0.5 2.453125 0.5q1.265625 0 2.21875 -0.375q0.953125 -0.375 1.734375 -1.140625l2.4375 2.640625q-1.078125 1.234375 -2.734375 1.890625q-1.640625 0.65625 -3.78125 0.65625zm19.925415 -0.234375l0 -3.078125l-0.296875 -0.671875l0 -5.515625q0 -1.46875 -0.90625 -2.28125q-0.890625 -0.828125 -2.734375 -0.828125q-1.265625 0 -2.484375 0.40625q-1.203125 0.390625 -2.0625 1.0625l-1.640625 -3.203125q1.296875 -0.90625 3.109375 -1.40625q1.8125 -0.5 3.6875 -0.5q3.609375 0 5.609375 1.703125q2.0 1.703125 2.0 5.3125l0 9.0l-4.28125 0zm-4.8125 0.234375q-1.859375 0 -3.171875 -0.625q-1.3125 -0.640625 -2.03125 -1.71875q-0.703125 -1.09375 -0.703125 -2.4375q0 -1.40625 0.6875 -2.453125q0.703125 -1.0625 2.1875 -1.65625q1.5 -0.609375 3.90625 -0.609375l4.1875 0l0 2.671875l-3.6875 0q-1.609375 0 -2.21875 0.53125q-0.59375 0.515625 -0.59375 1.3125q0 0.875 0.6875 1.390625q0.6875 0.515625 1.890625 0.515625q1.140625 0 2.046875 -0.546875q0.921875 -0.546875 1.328125 -1.59375l0.703125 2.109375q-0.5 1.53125 -1.828125 2.328125q-1.3125 0.78125 -3.390625 0.78125zm20.119034 0q-2.234375 0 -4.03125 -1.0q-1.78125 -1.015625 -2.828125 -2.828125q-1.03125 -1.828125 -1.03125 -4.296875q0 -2.484375 1.03125 -4.296875q1.046875 -1.828125 2.828125 -2.828125q1.796875 -1.0 4.03125 -1.0q1.984375 0 3.484375 0.890625q1.5 0.875 2.3125 2.671875q0.828125 1.78125 0.828125 4.5625q0 2.765625 -0.796875 4.5625q-0.78125 1.796875 -2.265625 2.6875q-1.484375 0.875 -3.5625 0.875zm0.78125 -3.75q1.125 0 2.03125 -0.53125q0.90625 -0.53125 1.453125 -1.515625q0.546875 -0.984375 0.546875 -2.328125q0 -1.375 -0.546875 -2.34375q-0.546875 -0.96875 -1.453125 -1.5q-0.90625 -0.53125 -2.03125 -0.53125q-1.140625 0 -2.046875 0.53125q-0.90625 0.53125 -1.453125 1.5q-0.546875 0.96875 -0.546875 2.34375q0 1.34375 0.546875 2.328125q0.546875 0.984375 1.453125 1.515625q0.90625 0.53125 2.046875 0.53125zm4.140625 3.515625l0 -3.21875l0.09375 -4.703125l-0.296875 -4.65625l0 -9.1875l4.578125 0l0 21.765625l-4.375 0zm8.591919 0l0 -21.765625l4.578125 0l0 21.765625l-4.578125 0zm8.827759 0l0 -15.78125l4.578125 0l0 15.78125l-4.578125 0zm2.28125 -17.984375q-1.265625 0 -2.0625 -0.71875q-0.78125 -0.734375 -0.78125 -1.828125q0 -1.078125 0.78125 -1.8125q0.796875 -0.734375 2.0625 -0.734375q1.265625 0 2.046875 0.6875q0.796875 0.6875 0.796875 1.765625q0 1.15625 -0.78125 1.90625q-0.765625 0.734375 -2.0625 0.734375zm6.546509 17.984375l0 -15.78125l4.375 0l0 4.375l-0.828125 -1.328125q0.859375 -1.578125 2.4375 -2.421875q1.578125 -0.859375 3.609375 -0.859375q1.875 0 3.359375 0.75q1.484375 0.75 2.328125 2.296875q0.84375 1.53125 0.84375 3.9375l0 9.03125l-4.5625 0l0 -8.328125q0 -1.90625 -0.84375 -2.8125q-0.828125 -0.90625 -2.359375 -0.90625q-1.078125 0 -1.953125 0.453125q-0.859375 0.453125 -1.34375 1.390625q-0.484375 0.9375 -0.484375 2.40625l0 7.796875l-4.578125 0zm28.211182 0.234375q-2.6875 0 -4.734375 -1.046875q-2.03125 -1.0625 -3.15625 -2.890625q-1.109375 -1.84375 -1.109375 -4.1875q0 -2.375 1.09375 -4.203125q1.109375 -1.84375 3.015625 -2.875q1.90625 -1.046875 4.3125 -1.046875q2.3125 0 4.171875 0.984375q1.859375 0.984375 2.9375 2.828125q1.09375 1.828125 1.09375 4.375q0 0.265625 -0.03125 0.609375q-0.015625 0.328125 -0.046875 0.625l-12.828125 0l0 -2.671875l10.421875 0l-1.765625 0.796875q0 -1.234375 -0.5 -2.140625q-0.5 -0.921875 -1.375 -1.421875q-0.875 -0.515625 -2.046875 -0.515625q-1.171875 0 -2.078125 0.515625q-0.890625 0.5 -1.390625 1.4375q-0.5 0.921875 -0.5 2.171875l0 0.703125q0 1.296875 0.5625 2.28125q0.578125 0.984375 1.625 1.5q1.046875 0.5 2.453125 0.5q1.265625 0 2.21875 -0.375q0.953125 -0.375 1.734375 -1.140625l2.4375 2.640625q-1.078125 1.234375 -2.734375 1.890625q-1.640625 0.65625 -3.78125 0.65625zm15.9904175 0q-2.03125 0 -3.890625 -0.484375q-1.859375 -0.484375 -2.9375 -1.21875l1.515625 -3.28125q1.09375 0.671875 2.5625 1.109375q1.484375 0.421875 2.921875 0.421875q1.59375 0 2.25 -0.375q0.65625 -0.390625 0.65625 -1.0625q0 -0.5625 -0.515625 -0.84375q-0.515625 -0.28125 -1.375 -0.421875q-0.84375 -0.15625 -1.859375 -0.296875q-1.0 -0.140625 -2.03125 -0.390625q-1.015625 -0.25 -1.875 -0.75q-0.84375 -0.5 -1.359375 -1.34375q-0.515625 -0.859375 -0.515625 -2.203125q0 -1.5 0.859375 -2.640625q0.875 -1.140625 2.515625 -1.796875q1.640625 -0.671875 3.921875 -0.671875q1.625 0 3.296875 0.359375q1.671875 0.34375 2.78125 1.015625l-1.53125 3.265625q-1.140625 -0.671875 -2.296875 -0.921875q-1.15625 -0.25 -2.25 -0.25q-1.515625 0 -2.21875 0.40625q-0.703125 0.40625 -0.703125 1.046875q0 0.59375 0.5 0.890625q0.515625 0.296875 1.359375 0.46875q0.859375 0.171875 1.875 0.3125q1.015625 0.125 2.03125 0.390625q1.03125 0.265625 1.859375 0.75q0.84375 0.484375 1.375 1.328125q0.53125 0.828125 0.53125 2.171875q0 1.46875 -0.890625 2.59375q-0.875 1.125 -2.53125 1.78125q-1.65625 0.640625 -4.03125 0.640625z" fill-rule="nonzero"/><path fill="#312f41" d="m87.936844 244.53975q3.609375 0 5.625 2.109375q2.03125 2.09375 2.03125 6.015625l0 12.70314l-3.8125 0l0 -12.54689q0 -2.4375 -1.28125 -3.6875q-1.265625 -1.25 -3.328125 -1.25q-2.28125 0 -3.65625 1.296875q-1.359375 1.28125 -1.359375 3.953125l0 12.23439l-3.8125 0l0 -12.54689q0 -2.46875 -1.1875 -3.703125q-1.1875 -1.234375 -3.234375 -1.234375q-2.3125 0 -3.71875 1.3125q-1.390625 1.296875 -1.390625 3.9375l0 12.23439l-3.8125 0l0 -20.531265l3.703125 0l0 2.703125q0.9375 -1.4375 2.546875 -2.21875q1.609375 -0.78125 3.734375 -0.78125q2.171875 0 3.78125 0.828125q1.609375 0.8125 2.4375 2.3125q1.015625 -1.5 2.78125 -2.3125q1.78125 -0.828125 3.953125 -0.828125zm19.676926 21.031265q-2.375 0 -4.28125 -1.015625q-1.90625 -1.03125 -2.984375 -2.859375q-1.0625 -1.84375 -1.0625 -4.15625q0 -2.3125153 1.0625 -4.1250153q1.078125 -1.828125 2.984375 -2.859375q1.90625 -1.03125 4.28125 -1.03125q2.40625 0 4.3125 1.03125q1.90625 1.03125 2.96875 2.859375q1.078125 1.8125 1.078125 4.1250153q0 2.3125 -1.078125 4.15625q-1.0625 1.828125 -2.96875 2.859375q-1.90625 1.015625 -4.3125 1.015625zm0 -3.140625q2.03125 0 3.34375 -1.34375q1.328125 -1.34375 1.328125 -3.546875q0 -2.2031403 -1.328125 -3.5468903q-1.3125 -1.359375 -3.34375 -1.359375q-2.015625 0 -3.328125 1.359375q-1.296875 1.34375 -1.296875 3.5468903q0 2.203125 1.296875 3.546875q1.3125 1.34375 3.328125 1.34375zm20.776001 -12.906265q2.953125 0 4.734375 1.734375q1.796875 1.734375 1.796875 5.1406403l0 8.96875l-3.65625 0l0 -8.5q0 -2.0625153 -0.96875 -3.0937653q-0.96875 -1.046875 -2.765625 -1.046875q-2.015625 0 -3.1875 1.21875q-1.171875 1.21875 -1.171875 3.5000153l0 7.921875l-3.671875 0l0 -15.656265l3.484375 0l0 2.015625q0.90625 -1.078125 2.28125 -1.640625q1.390625 -0.5625 3.125 -0.5625zm19.996002 15.000015q-0.640625 0.515625 -1.578125 0.78125q-0.921875 0.265625 -1.9375 0.265625q-2.578125 0 -4.0 -1.34375q-1.40625 -1.359375 -1.40625 -3.9375l0 -14.04689l3.671875 0l0 3.578125l4.1875 0l0 2.9375l-4.1875 0l0 7.4531403q0 1.140625 0.5625 1.75q0.578125 0.59375 1.609375 0.59375q1.234375 0 2.046875 -0.640625l1.03125 2.609375zm7.866104 1.046875q-1.90625 0 -3.734375 -0.5q-1.8125 -0.5 -2.90625 -1.25l1.421875 -2.796875q1.046875 0.703125 2.53125 1.140625q1.484375 0.421875 2.921875 0.421875q3.28125 0 3.28125 -1.734375q0 -0.828125 -0.84375 -1.140625q-0.828125 -0.328125 -2.671875 -0.625q-1.9375 -0.28125 -3.15625 -0.65625q-1.21875 -0.390625 -2.125 -1.34375q-0.890625 -0.953125 -0.890625 -2.6562653q0 -2.234375 1.859375 -3.5625q1.875 -1.34375 5.046875 -1.34375q1.609375 0 3.21875 0.375q1.609375 0.359375 2.640625 0.984375l-1.40625 2.78125q-2.0 -1.171875 -4.484375 -1.171875q-1.625 0 -2.46875 0.484375q-0.828125 0.484375 -0.828125 1.28125q0 0.875 0.890625 1.25q0.90625 0.359375 2.78125 0.67189026q1.875 0.296875 3.078125 0.6875q1.203125 0.375 2.0625 1.28125q0.875 0.90625 0.875 2.578125q0 2.203125 -1.90625 3.53125q-1.90625 1.3125 -5.1875 1.3125zm17.713348 -3.109375q2.546875 0 4.25 -1.703125l1.9375 2.265625q-1.03125 1.265625 -2.640625 1.90625q-1.609375 0.640625 -3.640625 0.640625q-2.578125 0 -4.546875 -1.015625q-1.96875 -1.03125 -3.046875 -2.859375q-1.0625 -1.84375 -1.0625 -4.15625q0 -2.2968903 1.046875 -4.1250153q1.046875 -1.828125 2.875 -2.859375q1.828125 -1.03125 4.15625 -1.03125q2.1875 0 3.984375 0.953125q1.8125 0.953125 2.859375 2.734375q1.0625 1.78125 1.0625 4.1562653l-11.984375 2.34375q0.546875 1.34375 1.78125 2.046875q1.234375 0.703125 2.96875 0.703125zm-0.671875 -10.000015q-2.03125 0 -3.28125 1.328125q-1.25 1.3125 -1.25 3.5468903l0 0.03125l8.859375 -1.7031403q-0.375 -1.4375 -1.53125 -2.3125q-1.15625 -0.890625 -2.796875 -0.890625zm14.915878 -0.46875q1.59375 -2.46875 5.578125 -2.46875l0 3.5q-0.46875 -0.09375 -0.859375 -0.09375q-2.140625 0 -3.34375 1.25q-1.1875 1.25 -1.1875 3.5937653l0 7.59375l-3.671875 0l0 -15.656265l3.484375 0l0 2.28125zm12.171143 0q1.59375 -2.46875 5.578125 -2.46875l0 3.5q-0.46875 -0.09375 -0.859375 -0.09375q-2.140625 0 -3.34375 1.25q-1.1875 1.25 -1.1875 3.5937653l0 7.59375l-3.671875 0l0 -15.656265l3.484375 0l0 2.28125zm23.8526 -2.28125l0 15.656265l-3.5 0l0 -2.03125q-0.90625 1.125 -2.25 1.6875q-1.328125 0.546875 -2.9375 0.546875q-2.28125 0 -4.09375 -0.984375q-1.796875 -1.0 -2.8125 -2.8125q-1.015625 -1.828125 -1.015625 -4.234375q0 -2.4062653 1.015625 -4.2031403q1.015625 -1.8125 2.8125 -2.8125q1.8125 -1.0 4.09375 -1.0q1.53125 0 2.796875 0.53125q1.28125 0.53125 2.21875 1.5625l0 -1.90625l3.671875 0zm-8.28125 12.718765q2.03125 0 3.34375 -1.34375q1.328125 -1.34375 1.328125 -3.546875q0 -2.2031403 -1.328125 -3.5468903q-1.3125 -1.359375 -3.34375 -1.359375q-2.015625 0 -3.328125 1.359375q-1.296875 1.34375 -1.296875 3.5468903q0 2.203125 1.296875 3.546875q1.3125 1.34375 3.328125 1.34375zm21.884705 2.09375q-0.640625 0.515625 -1.578125 0.78125q-0.921875 0.265625 -1.9375 0.265625q-2.578125 0 -4.0 -1.34375q-1.40625 -1.359375 -1.40625 -3.9375l0 -14.04689l3.671875 0l0 3.578125l4.1875 0l0 2.9375l-4.1875 0l0 7.4531403q0 1.140625 0.5625 1.75q0.578125 0.59375 1.609375 0.59375q1.234375 0 2.046875 -0.640625l1.03125 2.609375zm20.413788 -19.98439q2.75 0 4.796875 1.09375q2.0625 1.078125 3.1875 3.203125q1.140625 2.125 1.140625 5.15625l0 11.375015l-3.8125 0l0 -5.28125l-10.6875 0l0 5.28125l-3.75 0l0 -11.375015q0 -3.03125 1.125 -5.15625q1.140625 -2.125 3.1875 -3.203125q2.046875 -1.09375 4.8125 -1.09375zm5.3125 12.35939l0 -3.2656403q0 -2.84375 -1.421875 -4.296875q-1.40625 -1.453125 -3.921875 -1.453125q-2.515625 0 -3.9375 1.453125q-1.40625 1.453125 -1.40625 4.296875l0 3.2656403l10.6875 0zm13.950684 8.671875q-2.4375 0 -3.796875 -1.328125q-1.359375 -1.34375 -1.359375 -3.765625l0 -16.875015l3.671875 0l0 16.60939q0 2.34375 2.1875 2.34375q0.734375 0 1.328125 -0.296875l0.171875 2.9375q-1.03125 0.375 -2.203125 0.375zm13.494873 -1.046875q-0.640625 0.515625 -1.578125 0.78125q-0.921875 0.265625 -1.9375 0.265625q-2.578125 0 -4.0 -1.34375q-1.40625 -1.359375 -1.40625 -3.9375l0 -14.04689l3.671875 0l0 3.578125l4.1875 0l0 2.9375l-4.1875 0l0 7.4531403q0 1.140625 0.5625 1.75q0.578125 0.59375 1.609375 0.59375q1.234375 0 2.046875 -0.640625l1.03125 2.609375zm9.947479 -2.0625q2.546875 0 4.25 -1.703125l1.9375 2.265625q-1.03125 1.265625 -2.640625 1.90625q-1.609375 0.640625 -3.640625 0.640625q-2.578125 0 -4.546875 -1.015625q-1.96875 -1.03125 -3.046875 -2.859375q-1.0625 -1.84375 -1.0625 -4.15625q0 -2.2968903 1.046875 -4.1250153q1.046875 -1.828125 2.875 -2.859375q1.828125 -1.03125 4.15625 -1.03125q2.1875 0 3.984375 0.953125q1.8125 0.953125 2.859375 2.734375q1.0625 1.78125 1.0625 4.1562653l-11.984375 2.34375q0.546875 1.34375 1.78125 2.046875q1.234375 0.703125 2.96875 0.703125zm-0.671875 -10.000015q-2.03125 0 -3.28125 1.328125q-1.25 1.3125 -1.25 3.5468903l0 0.03125l8.859375 -1.7031403q-0.375 -1.4375 -1.53125 -2.3125q-1.15625 -0.890625 -2.796875 -0.890625zm14.915894 -0.46875q1.59375 -2.46875 5.578125 -2.46875l0 3.5q-0.46875 -0.09375 -0.859375 -0.09375q-2.140625 0 -3.34375 1.25q-1.1875 1.25 -1.1875 3.5937653l0 7.59375l-3.671875 0l0 -15.656265l3.484375 0l0 2.28125zm17.577393 -2.46875q2.953125 0 4.734375 1.734375q1.796875 1.734375 1.796875 5.1406403l0 8.96875l-3.65625 0l0 -8.5q0 -2.0625153 -0.96875 -3.0937653q-0.96875 -1.046875 -2.765625 -1.046875q-2.015625 0 -3.1875 1.21875q-1.171875 1.21875 -1.171875 3.5000153l0 7.921875l-3.671875 0l0 -15.656265l3.484375 0l0 2.015625q0.90625 -1.078125 2.28125 -1.640625q1.390625 -0.5625 3.125 -0.5625zm26.658295 0.1875l0 15.656265l-3.5 0l0 -2.03125q-0.90625 1.125 -2.25 1.6875q-1.328125 0.546875 -2.9375 0.546875q-2.28125 0 -4.09375 -0.984375q-1.796875 -1.0 -2.8125 -2.8125q-1.015625 -1.828125 -1.015625 -4.234375q0 -2.4062653 1.015625 -4.2031403q1.015625 -1.8125 2.8125 -2.8125q1.8125 -1.0 4.09375 -1.0q1.53125 0 2.796875 0.53125q1.28125 0.53125 2.21875 1.5625l0 -1.90625l3.671875 0zm-8.28125 12.718765q2.03125 0 3.34375 -1.34375q1.328125 -1.34375 1.328125 -3.546875q0 -2.2031403 -1.328125 -3.5468903q-1.3125 -1.359375 -3.34375 -1.359375q-2.015625 0 -3.328125 1.359375q-1.296875 1.34375 -1.296875 3.5468903q0 2.203125 1.296875 3.546875q1.3125 1.34375 3.328125 1.34375zm21.884705 2.09375q-0.640625 0.515625 -1.578125 0.78125q-0.921875 0.265625 -1.9375 0.265625q-2.578125 0 -4.0 -1.34375q-1.40625 -1.359375 -1.40625 -3.9375l0 -14.04689l3.671875 0l0 3.578125l4.1875 0l0 2.9375l-4.1875 0l0 7.4531403q0 1.140625 0.5625 1.75q0.578125 0.59375 1.609375 0.59375q1.234375 0 2.046875 -0.640625l1.03125 2.609375zm9.947479 -2.0625q2.546875 0 4.25 -1.703125l1.9375 2.265625q-1.03125 1.265625 -2.640625 1.90625q-1.609375 0.640625 -3.640625 0.640625q-2.578125 0 -4.546875 -1.015625q-1.96875 -1.03125 -3.046875 -2.859375q-1.0625 -1.84375 -1.0625 -4.15625q0 -2.2968903 1.046875 -4.1250153q1.046875 -1.828125 2.875 -2.859375q1.828125 -1.03125 4.15625 -1.03125q2.1875 0 3.984375 0.953125q1.8125 0.953125 2.859375 2.734375q1.0625 1.78125 1.0625 4.1562653l-11.984375 2.34375q0.546875 1.34375 1.78125 2.046875q1.234375 0.703125 2.96875 0.703125zm-0.671875 -10.000015q-2.03125 0 -3.28125 1.328125q-1.25 1.3125 -1.25 3.5468903l0 0.03125l8.859375 -1.7031403q-0.375 -1.4375 -1.53125 -2.3125q-1.15625 -0.890625 -2.796875 -0.890625zm16.275269 13.10939q-1.90625 0 -3.734375 -0.5q-1.8125 -0.5 -2.90625 -1.25l1.421875 -2.796875q1.046875 0.703125 2.53125 1.140625q1.484375 0.421875 2.921875 0.421875q3.28125 0 3.28125 -1.734375q0 -0.828125 -0.84375 -1.140625q-0.828125 -0.328125 -2.671875 -0.625q-1.9375 -0.28125 -3.15625 -0.65625q-1.21875 -0.390625 -2.125 -1.34375q-0.890625 -0.953125 -0.890625 -2.6562653q0 -2.234375 1.859375 -3.5625q1.875 -1.34375 5.046875 -1.34375q1.609375 0 3.21875 0.375q1.609375 0.359375 2.640625 0.984375l-1.40625 2.78125q-2.0 -1.171875 -4.484375 -1.171875q-1.625 0 -2.46875 0.484375q-0.828125 0.484375 -0.828125 1.28125q0 0.875 0.890625 1.25q0.90625 0.359375 2.78125 0.67189026q1.875 0.296875 3.078125 0.6875q1.203125 0.375 2.0625 1.28125q0.875 0.90625 0.875 2.578125q0 2.203125 -1.90625 3.53125q-1.90625 1.3125 -5.1875 1.3125z" fill-rule="nonzero"/><path fill="#312f41" d="m71.374344 300.86475q-2.375 0 -4.59375 -0.671875q-2.21875 -0.6875 -3.5 -1.796875l1.3125 -2.953125q1.265625 0.984375 3.09375 1.625q1.828125 0.625 3.6875 0.625q2.28125 0 3.40625 -0.734375q1.140625 -0.734375 1.140625 -1.9375q0 -0.875 -0.640625 -1.4375q-0.625 -0.578125 -1.59375 -0.90625q-0.96875 -0.328125 -2.640625 -0.734375q-2.34375 -0.5625 -3.796875 -1.109375q-1.453125 -0.5625 -2.5 -1.75q-1.03125 -1.1875 -1.03125 -3.203125q0 -1.703125 0.921875 -3.09375q0.921875 -1.40625 2.78125 -2.21875q1.859375 -0.828125 4.5625 -0.828125q1.875 0 3.6875 0.46875q1.828125 0.46875 3.15625 1.359375l-1.203125 2.953125q-1.359375 -0.78125 -2.828125 -1.1875q-1.453125 -0.421875 -2.84375 -0.421875q-2.25 0 -3.359375 0.765625q-1.09375 0.765625 -1.09375 2.015625q0 0.890625 0.625 1.453125q0.640625 0.546875 1.609375 0.875q0.96875 0.3125 2.640625 0.734375q2.28125 0.515625 3.75 1.09375q1.46875 0.578125 2.5 1.75q1.046875 1.171875 1.046875 3.15625q0 1.703125 -0.921875 3.09375q-0.921875 1.375 -2.8125 2.203125q-1.875 0.8125 -4.5625 0.8125zm19.181747 -3.203125q2.546875 0 4.25 -1.703125l1.9375 2.265625q-1.03125 1.265625 -2.640625 1.90625q-1.609375 0.640625 -3.640625 0.640625q-2.578125 0 -4.546875 -1.015625q-1.96875 -1.03125 -3.046875 -2.859375q-1.0625 -1.84375 -1.0625 -4.15625q0 -2.296875 1.046875 -4.125q1.046875 -1.828125 2.875 -2.859375q1.828125 -1.03125 4.15625 -1.03125q2.1875 0 3.984375 0.953125q1.8125 0.953125 2.859375 2.734375q1.0625 1.78125 1.0625 4.15625l-11.984375 2.34375q0.546875 1.34375 1.78125 2.046875q1.234375 0.703125 2.96875 0.703125zm-0.671875 -10.0q-2.03125 0 -3.28125 1.328125q-1.25 1.3125 -1.25 3.546875l0 0.03125l8.859375 -1.703125q-0.375 -1.4375 -1.53125 -2.3125q-1.15625 -0.890625 -2.796875 -0.890625zm31.197128 -2.9375q2.96875 0 4.6875 1.71875q1.734375 1.71875 1.734375 5.15625l0 8.96875l-3.671875 0l0 -8.5q0 -2.0625 -0.90625 -3.09375q-0.90625 -1.046875 -2.609375 -1.046875q-1.84375 0 -2.96875 1.21875q-1.109375 1.21875 -1.109375 3.46875l0 7.953125l-3.65625 0l0 -8.5q0 -2.0625 -0.921875 -3.09375q-0.90625 -1.046875 -2.609375 -1.046875q-1.875 0 -2.96875 1.203125q-1.09375 1.203125 -1.09375 3.484375l0 7.953125l-3.671875 0l0 -15.65625l3.484375 0l0 1.984375q0.890625 -1.046875 2.203125 -1.609375q1.328125 -0.5625 2.9375 -0.5625q1.75 0 3.109375 0.671875q1.375 0.65625 2.171875 1.9375q0.96875 -1.21875 2.484375 -1.90625q1.53125 -0.703125 3.375 -0.703125zm11.116867 0.1875l3.671875 0l0 15.65625l-3.671875 0l0 -15.65625zm1.84375 -2.578125q-1.0 0 -1.671875 -0.625q-0.671875 -0.640625 -0.671875 -1.578125q0 -0.9375 0.671875 -1.5625q0.671875 -0.640625 1.671875 -0.640625q1.0 0 1.671875 0.609375q0.671875 0.59375 0.671875 1.5q0 0.96875 -0.65625 1.640625q-0.65625 0.65625 -1.6875 0.65625zm29.617264 7.5625q1.703125 0.546875 2.703125 1.859375q1.0 1.296875 1.0 3.234375q0 2.671875 -2.0625 4.125q-2.046875 1.453125 -5.96875 1.453125l-10.21875 0l0 -20.53125l9.625 0q3.640625 0 5.59375 1.421875q1.96875 1.421875 1.96875 3.921875q0 1.515625 -0.703125 2.6875q-0.703125 1.171875 -1.9375 1.828125zm-10.734375 -6.859375l0 5.65625l5.40625 0q1.984375 0 3.046875 -0.71875q1.078125 -0.71875 1.078125 -2.09375q0 -1.40625 -1.078125 -2.125q-1.0625 -0.71875 -3.046875 -0.71875l-5.40625 0zm6.171875 14.546875q4.421875 0 4.421875 -2.96875q0 -2.96875 -4.421875 -2.96875l-6.171875 0l0 5.9375l6.171875 0zm19.02182 3.1875q-2.375 0 -4.28125 -1.015625q-1.90625 -1.03125 -2.984375 -2.859375q-1.0625 -1.84375 -1.0625 -4.15625q0 -2.3125 1.0625 -4.125q1.078125 -1.828125 2.984375 -2.859375q1.90625 -1.03125 4.28125 -1.03125q2.40625 0 4.3125 1.03125q1.90625 1.03125 2.96875 2.859375q1.078125 1.8125 1.078125 4.125q0 2.3125 -1.078125 4.15625q-1.0625 1.828125 -2.96875 2.859375q-1.90625 1.015625 -4.3125 1.015625zm0 -3.140625q2.03125 0 3.34375 -1.34375q1.328125 -1.34375 1.328125 -3.546875q0 -2.203125 -1.328125 -3.546875q-1.3125 -1.359375 -3.34375 -1.359375q-2.015625 0 -3.328125 1.359375q-1.296875 1.34375 -1.296875 3.546875q0 2.203125 1.296875 3.546875q1.3125 1.34375 3.328125 1.34375zm17.041626 3.140625q-2.4375 0 -3.796875 -1.328125q-1.359375 -1.34375 -1.359375 -3.765625l0 -16.875l3.671875 0l0 16.609375q0 2.34375 2.1875 2.34375q0.734375 0 1.328125 -0.296875l0.171875 2.9375q-1.03125 0.375 -2.203125 0.375zm19.748413 -21.96875l0 21.765625l-3.53125 0l0 -2.03125q-0.90625 1.125 -2.25 1.6875q-1.328125 0.546875 -2.9375 0.546875q-2.25 0 -4.0625 -0.984375q-1.796875 -1.0 -2.828125 -2.828125q-1.03125 -1.84375 -1.03125 -4.21875q0 -2.375 1.03125 -4.1875q1.03125 -1.828125 2.828125 -2.828125q1.8125 -1.0 4.0625 -1.0q1.5625 0 2.84375 0.53125q1.296875 0.53125 2.203125 1.59375l0 -8.046875l3.671875 0zm-8.28125 18.828125q1.328125 0 2.375 -0.59375q1.0625 -0.609375 1.671875 -1.71875q0.625 -1.109375 0.625 -2.578125q0 -1.46875 -0.625 -2.578125q-0.609375 -1.125 -1.671875 -1.71875q-1.046875 -0.609375 -2.375 -0.609375q-1.3125 0 -2.375 0.609375q-1.046875 0.59375 -1.671875 1.71875q-0.609375 1.109375 -0.609375 2.578125q0 1.46875 0.609375 2.578125q0.625 1.109375 1.671875 1.71875q1.0625 0.59375 2.375 0.59375z" fill-rule="nonzero"/><path fill="#312f41" d="m64.686844 349.1012l0 -20.53125l10.03125 0q3.859375 0 5.8125 1.46875q1.953125 1.46875 1.953125 3.875q0 1.609375 -0.796875 2.796875q-0.78125 1.1875 -2.171875 1.84375q-1.375 0.640625 -3.15625 0.640625l0.546875 -1.203125q1.9375 0 3.4375 0.625q1.5 0.625 2.328125 1.859375q0.84375 1.234375 0.84375 3.015625q0 2.640625 -2.09375 4.125q-2.078125 1.484375 -6.125 1.484375l-10.609375 0zm4.71875 -3.578125l5.546875 0q1.84375 0 2.796875 -0.59375q0.953125 -0.609375 0.953125 -1.921875q0 -1.296875 -0.953125 -1.921875q-0.953125 -0.640625 -2.796875 -0.640625l-5.90625 0l0 -3.453125l5.078125 0q1.734375 0 2.65625 -0.59375q0.921875 -0.609375 0.921875 -1.84375q0 -1.203125 -0.921875 -1.796875q-0.921875 -0.609375 -2.65625 -0.609375l-4.71875 0l0 13.375zm24.904755 3.8125q-2.53125 0 -4.484375 -1.046875q-1.9375 -1.0625 -3.078125 -2.890625q-1.125 -1.84375 -1.125 -4.1875q0 -2.375 1.125 -4.203125q1.140625 -1.84375 3.078125 -2.875q1.953125 -1.046875 4.484375 -1.046875q2.484375 0 4.453125 1.046875q1.96875 1.03125 3.078125 2.859375q1.109375 1.8125 1.109375 4.21875q0 2.34375 -1.109375 4.1875q-1.109375 1.828125 -3.078125 2.890625q-1.96875 1.046875 -4.453125 1.046875zm0 -3.75q1.140625 0 2.046875 -0.53125q0.90625 -0.53125 1.4375 -1.515625q0.53125 -0.984375 0.53125 -2.328125q0 -1.375 -0.53125 -2.34375q-0.53125 -0.96875 -1.4375 -1.5q-0.90625 -0.53125 -2.046875 -0.53125q-1.15625 0 -2.0625 0.53125q-0.90625 0.53125 -1.453125 1.5q-0.53125 0.96875 -0.53125 2.34375q0 1.34375 0.53125 2.328125q0.546875 0.984375 1.453125 1.515625q0.90625 0.53125 2.0625 0.53125zm18.47554 3.75q-2.234375 0 -4.03125 -1.0q-1.78125 -1.015625 -2.828125 -2.828125q-1.03125 -1.828125 -1.03125 -4.296875q0 -2.484375 1.03125 -4.296875q1.046875 -1.828125 2.828125 -2.828125q1.796875 -1.0 4.03125 -1.0q1.984375 0 3.484375 0.890625q1.5 0.875 2.3125 2.671875q0.828125 1.78125 0.828125 4.5625q0 2.765625 -0.796875 4.5625q-0.78125 1.796875 -2.265625 2.6875q-1.484375 0.875 -3.5625 0.875zm0.78125 -3.75q1.125 0 2.03125 -0.53125q0.90625 -0.53125 1.453125 -1.515625q0.546875 -0.984375 0.546875 -2.328125q0 -1.375 -0.546875 -2.34375q-0.546875 -0.96875 -1.453125 -1.5q-0.90625 -0.53125 -2.03125 -0.53125q-1.140625 0 -2.046875 0.53125q-0.90625 0.53125 -1.453125 1.5q-0.546875 0.96875 -0.546875 2.34375q0 1.34375 0.546875 2.328125q0.546875 0.984375 1.453125 1.515625q0.90625 0.53125 2.046875 0.53125zm4.140625 3.515625l0 -3.21875l0.09375 -4.703125l-0.296875 -4.65625l0 -9.1875l4.578125 0l0 21.765625l-4.375 0zm10.591919 5.921875q-1.234375 0 -2.4375 -0.390625q-1.203125 -0.375 -1.96875 -1.046875l1.671875 -3.25q0.53125 0.46875 1.21875 0.734375q0.6875 0.265625 1.359375 0.265625q0.96875 0 1.546875 -0.46875q0.578125 -0.453125 1.046875 -1.5l0.8125 -1.9375l0.359375 -0.5l5.65625 -13.609375l4.390625 0l-7.125 16.75q-0.75 1.90625 -1.734375 2.984375q-0.984375 1.09375 -2.171875 1.53125q-1.1875 0.4375 -2.625 0.4375zm2.6875 -5.3125l-7.03125 -16.390625l4.71875 0l5.453125 13.203125l-3.140625 3.1875z" fill-rule="nonzero"/><path fill="#312f41" d="m65.593094 384.3012l0 -20.53125l1.78125 0l9.390625 16.015625l-0.9375 0l9.296875 -16.015625l1.796875 0l0 20.53125l-2.09375 0l0 -17.28125l0.5 0l-8.5625 14.671875l-1.03125 0l-8.609375 -14.671875l0.546875 0l0 17.28125l-2.078125 0zm33.852097 0.140625q-2.234375 0 -4.015625 -1.0q-1.765625 -1.015625 -2.796875 -2.78125q-1.03125 -1.78125 -1.03125 -4.078125q0 -2.3125 1.03125 -4.0625q1.03125 -1.765625 2.78125 -2.765625q1.765625 -1.0 4.03125 -1.0q2.28125 0 4.046875 1.0q1.78125 1.0 2.796875 2.765625q1.015625 1.75 1.015625 4.0625q0 2.296875 -1.015625 4.078125q-1.015625 1.765625 -2.8125 2.78125q-1.78125 1.0 -4.03125 1.0zm0 -1.84375q1.65625 0 2.953125 -0.75q1.296875 -0.75 2.03125 -2.109375q0.75 -1.359375 0.75 -3.15625q0 -1.8125 -0.75 -3.15625q-0.734375 -1.359375 -2.03125 -2.09375q-1.296875 -0.75 -2.9375 -0.75q-1.640625 0 -2.9375 0.75q-1.28125 0.734375 -2.046875 2.09375q-0.765625 1.34375 -0.765625 3.15625q0 1.796875 0.765625 3.15625q0.765625 1.359375 2.046875 2.109375q1.296875 0.75 2.921875 0.75zm12.107468 1.703125l0 -15.390625l1.984375 0l0 4.21875l-0.3125 -0.796875q0.734375 -1.671875 2.34375 -2.625q1.609375 -0.953125 3.84375 -0.953125q1.875 0 3.296875 0.71875q1.421875 0.71875 2.21875 2.1875q0.8125 1.46875 0.8125 3.703125l0 8.9375l-2.078125 0l0 -8.734375q0 -2.4375 -1.21875 -3.6875q-1.21875 -1.25 -3.421875 -1.25q-1.640625 0 -2.859375 0.671875q-1.203125 0.65625 -1.875 1.90625q-0.65625 1.234375 -0.65625 3.0l0 8.09375l-2.078125 0zm24.68518 0.140625q-2.15625 0 -3.34375 -1.171875q-1.171875 -1.171875 -1.171875 -3.3125l0 -14.453125l2.09375 0l0 14.34375q0 1.34375 0.6875 2.078125q0.6875 0.734375 1.96875 0.734375q1.390625 0 2.296875 -0.796875l0.734375 1.5q-0.625 0.5625 -1.484375 0.828125q-0.859375 0.25 -1.78125 0.25zm-7.265625 -13.8125l0 -1.71875l9.53125 0l0 1.71875l-9.53125 0zm18.438461 13.8125q-1.90625 0 -3.609375 -0.53125q-1.6875 -0.546875 -2.65625 -1.375l0.9375 -1.640625q0.9375 0.703125 2.40625 1.21875q1.46875 0.515625 3.078125 0.515625q2.203125 0 3.171875 -0.6875q0.96875 -0.6875 0.96875 -1.828125q0 -0.859375 -0.546875 -1.34375q-0.546875 -0.484375 -1.4375 -0.734375q-0.875 -0.25 -1.953125 -0.421875q-1.078125 -0.171875 -2.15625 -0.40625q-1.0625 -0.234375 -1.953125 -0.6875q-0.875 -0.453125 -1.421875 -1.25q-0.546875 -0.796875 -0.546875 -2.109375q0 -1.265625 0.703125 -2.265625q0.71875 -1.0 2.078125 -1.5625q1.359375 -0.578125 3.328125 -0.578125q1.5 0 2.984375 0.40625q1.5 0.390625 2.46875 1.03125l-0.90625 1.671875q-1.03125 -0.703125 -2.203125 -1.0q-1.171875 -0.3125 -2.34375 -0.3125q-2.078125 0 -3.0625 0.71875q-0.984375 0.71875 -0.984375 1.828125q0 0.875 0.53125 1.375q0.546875 0.5 1.4375 0.78125q0.90625 0.28125 1.96875 0.453125q1.078125 0.171875 2.140625 0.421875q1.078125 0.25 1.96875 0.6875q0.890625 0.421875 1.4375 1.203125q0.546875 0.765625 0.546875 2.03125q0 1.34375 -0.75 2.328125q-0.75 0.984375 -2.171875 1.53125q-1.421875 0.53125 -3.453125 0.53125zm16.718369 0q-2.40625 0 -4.21875 -1.0q-1.8125 -1.015625 -2.84375 -2.78125q-1.03125 -1.78125 -1.03125 -4.078125q0 -2.28125 0.984375 -4.03125q0.984375 -1.765625 2.703125 -2.78125q1.71875 -1.015625 3.859375 -1.015625q2.171875 0 3.84375 0.984375q1.6875 0.984375 2.65625 2.765625q0.96875 1.765625 0.96875 4.078125q0 0.15625 -0.015625 0.3125q-0.015625 0.15625 -0.015625 0.34375l-13.390625 0l0 -1.5625l12.28125 0l-0.8125 0.625q0 -1.671875 -0.71875 -2.96875q-0.71875 -1.3125 -1.953125 -2.046875q-1.234375 -0.734375 -2.84375 -0.734375q-1.59375 0 -2.859375 0.734375q-1.25 0.734375 -1.953125 2.046875q-0.703125 1.3125 -0.703125 3.015625l0 0.328125q0 1.765625 0.765625 3.09375q0.78125 1.328125 2.171875 2.078125q1.40625 0.75 3.1875 0.75q1.40625 0 2.625 -0.5q1.21875 -0.5 2.09375 -1.515625l1.171875 1.34375q-1.015625 1.234375 -2.5625 1.875q-1.53125 0.640625 -3.390625 0.640625zm11.182922 -0.140625l0 -15.390625l1.984375 0l0 4.1875l-0.203125 -0.734375q0.65625 -1.765625 2.171875 -2.6875q1.53125 -0.921875 3.78125 -0.921875l0 2.03125q-0.109375 0 -0.234375 -0.015625q-0.109375 -0.015625 -0.234375 -0.015625q-2.421875 0 -3.8125 1.484375q-1.375 1.46875 -1.375 4.203125l0 7.859375l-2.078125 0zm11.525909 0l0 -15.390625l1.984375 0l0 4.1875l-0.203125 -0.734375q0.65625 -1.765625 2.171875 -2.6875q1.53125 -0.921875 3.78125 -0.921875l0 2.03125q-0.109375 0 -0.234375 -0.015625q-0.109375 -0.015625 -0.234375 -0.015625q-2.421875 0 -3.8125 1.484375q-1.375 1.46875 -1.375 4.203125l0 7.859375l-2.078125 0zm20.198532 0l0 -3.40625l-0.078125 -0.546875l0 -5.703125q0 -1.953125 -1.109375 -3.0q-1.09375 -1.0625 -3.265625 -1.0625q-1.5 0 -2.84375 0.5q-1.34375 0.484375 -2.28125 1.3125l-0.9375 -1.5625q1.171875 -0.984375 2.8125 -1.53125q1.640625 -0.546875 3.453125 -0.546875q3.0 0 4.625 1.484375q1.625 1.484375 1.625 4.5l0 9.5625l-2.0 0zm-5.296875 0.140625q-1.734375 0 -3.015625 -0.5625q-1.265625 -0.578125 -1.953125 -1.578125q-0.671875 -1.015625 -0.671875 -2.34375q0 -1.203125 0.5625 -2.1875q0.578125 -0.984375 1.875 -1.578125q1.3125 -0.59375 3.515625 -0.59375l5.3125 0l0 1.546875l-5.25 0q-2.234375 0 -3.09375 0.796875q-0.859375 0.78125 -0.859375 1.953125q0 1.328125 1.015625 2.125q1.03125 0.78125 2.875 0.78125q1.765625 0 3.03125 -0.796875q1.28125 -0.8125 1.875 -2.34375l0.46875 1.4375q-0.59375 1.53125 -2.046875 2.4375q-1.453125 0.90625 -3.640625 0.90625zm17.819214 0q-2.15625 0 -3.34375 -1.171875q-1.171875 -1.171875 -1.171875 -3.3125l0 -14.453125l2.09375 0l0 14.34375q0 1.34375 0.6875 2.078125q0.6875 0.734375 1.96875 0.734375q1.390625 0 2.296875 -0.796875l0.734375 1.5q-0.625 0.5625 -1.484375 0.828125q-0.859375 0.25 -1.78125 0.25zm-7.265625 -13.8125l0 -1.71875l9.53125 0l0 1.71875l-9.53125 0zm22.434921 13.671875l0 -20.53125l7.6875 0q3.890625 0 6.140625 1.859375q2.25 1.859375 2.25 5.1875q0 2.15625 -1.015625 3.734375q-1.015625 1.5625 -2.890625 2.40625q-1.875 0.828125 -4.484375 0.828125l-6.484375 0l0.96875 -1.0l0 7.515625l-2.171875 0zm14.015625 0l-5.28125 -7.453125l2.34375 0l5.3125 7.453125l-2.375 0zm-11.84375 -7.328125l-0.96875 -1.03125l6.421875 0q3.078125 0 4.671875 -1.34375q1.609375 -1.359375 1.609375 -3.78125q0 -2.46875 -1.609375 -3.8125q-1.59375 -1.359375 -4.671875 -1.359375l-6.421875 0l0.96875 -1.015625l0 12.34375zm25.126083 7.46875q-2.40625 0 -4.21875 -1.0q-1.8124847 -1.015625 -2.8437347 -2.78125q-1.03125 -1.78125 -1.03125 -4.078125q0 -2.28125 0.984375 -4.03125q0.984375 -1.765625 2.7031097 -2.78125q1.71875 -1.015625 3.859375 -1.015625q2.171875 0 3.84375 0.984375q1.6875 0.984375 2.65625 2.765625q0.96875 1.765625 0.96875 4.078125q0 0.15625 -0.015625 0.3125q-0.015625 0.15625 -0.015625 0.34375l-13.39061 0l0 -1.5625l12.281235 0l-0.8125 0.625q0 -1.671875 -0.71875 -2.96875q-0.71875 -1.3125 -1.953125 -2.046875q-1.234375 -0.734375 -2.84375 -0.734375q-1.59375 0 -2.859375 0.734375q-1.25 0.734375 -1.953125 2.046875q-0.70310974 1.3125 -0.70310974 3.015625l0 0.328125q0 1.765625 0.76560974 3.09375q0.78125 1.328125 2.171875 2.078125q1.40625 0.75 3.1875 0.75q1.40625 0 2.625 -0.5q1.21875 -0.5 2.09375 -1.515625l1.171875 1.34375q-1.015625 1.234375 -2.5625 1.875q-1.53125 0.640625 -3.390625 0.640625zm17.745422 5.703125q-2.109375 0 -4.046875 -0.625q-1.9375 -0.609375 -3.140625 -1.765625l1.0625 -1.578125q1.078125 0.96875 2.671875 1.53125q1.609375 0.578125 3.40625 0.578125q2.921875 0 4.296875 -1.359375q1.390625 -1.359375 1.390625 -4.234375l0 -3.84375l0.28125 -2.640625l-0.203125 -2.640625l0 -4.65625l2.0 0l0 13.515625q0 3.984375 -1.953125 5.84375q-1.953125 1.875 -5.765625 1.875zm-0.375 -6.4375q-2.203125 0 -3.96875 -0.953125q-1.75 -0.953125 -2.765625 -2.640625q-1.015625 -1.703125 -1.015625 -3.90625q0 -2.203125 1.015625 -3.890625q1.015625 -1.6875 2.765625 -2.625q1.765625 -0.9375 3.96875 -0.9375q2.046875 0 3.6875 0.859375q1.640625 0.84375 2.609375 2.515625q0.96875 1.671875 0.96875 4.078125q0 2.40625 -0.96875 4.078125q-0.96875 1.671875 -2.609375 2.546875q-1.640625 0.875 -3.6875 0.875zm0.203125 -1.84375q1.703125 0 3.015625 -0.71875q1.328125 -0.71875 2.078125 -1.984375q0.765625 -1.28125 0.765625 -2.953125q0 -1.671875 -0.765625 -2.921875q-0.75 -1.265625 -2.078125 -1.984375q-1.3125 -0.71875 -3.015625 -0.71875q-1.671875 0 -3.015625 0.71875q-1.328125 0.71875 -2.078125 1.984375q-0.75 1.25 -0.75 2.921875q0 1.671875 0.75 2.953125q0.75 1.265625 2.078125 1.984375q1.34375 0.71875 3.015625 0.71875zm20.058502 2.578125q-1.96875 0 -3.4375 -0.71875q-1.453125 -0.734375 -2.265625 -2.203125q-0.8125 -1.46875 -0.8125 -3.671875l0 -8.9375l2.09375 0l0 8.703125q0 2.46875 1.203125 3.71875q1.21875 1.234375 3.421875 1.234375q1.625 0 2.8125 -0.65625q1.1875 -0.65625 1.8125 -1.921875q0.625 -1.265625 0.625 -3.015625l0 -8.0625l2.09375 0l0 15.390625l-2.0 0l0 -4.21875l0.328125 0.765625q-0.734375 1.6875 -2.28125 2.640625q-1.53125 0.953125 -3.59375 0.953125zm13.349121 -0.140625l0 -21.765625l2.078125 0l0 21.765625l-2.078125 0zm17.529877 0l0 -3.40625l-0.078125 -0.546875l0 -5.703125q0 -1.953125 -1.109375 -3.0q-1.09375 -1.0625 -3.265625 -1.0625q-1.5 0 -2.84375 0.5q-1.34375 0.484375 -2.28125 1.3125l-0.9375 -1.5625q1.171875 -0.984375 2.8125 -1.53125q1.640625 -0.546875 3.453125 -0.546875q3.0 0 4.625 1.484375q1.625 1.484375 1.625 4.5l0 9.5625l-2.0 0zm-5.296875 0.140625q-1.734375 0 -3.015625 -0.5625q-1.265625 -0.578125 -1.953125 -1.578125q-0.671875 -1.015625 -0.671875 -2.34375q0 -1.203125 0.5625 -2.1875q0.578125 -0.984375 1.875 -1.578125q1.3125 -0.59375 3.515625 -0.59375l5.3125 0l0 1.546875l-5.25 0q-2.234375 0 -3.09375 0.796875q-0.859375 0.78125 -0.859375 1.953125q0 1.328125 1.015625 2.125q1.03125 0.78125 2.875 0.78125q1.765625 0 3.03125 -0.796875q1.28125 -0.8125 1.875 -2.34375l0.46875 1.4375q-0.59375 1.53125 -2.046875 2.4375q-1.453125 0.90625 -3.640625 0.90625zm12.959839 -0.140625l0 -15.390625l1.984375 0l0 4.1875l-0.203125 -0.734375q0.65625 -1.765625 2.171875 -2.6875q1.53125 -0.921875 3.78125 -0.921875l0 2.03125q-0.109375 0 -0.234375 -0.015625q-0.109375 -0.015625 -0.234375 -0.015625q-2.421875 0 -3.8125 1.484375q-1.375 1.46875 -1.375 4.203125l0 7.859375l-2.078125 0z" fill-rule="nonzero"/><path fill="#000000" fill-opacity="0.0" d="m527.2467 124.80315l376.56696 0l0 68.18898l-376.56696 0z" fill-rule="evenodd"/><path fill="#312f41" d="m547.02795 159.1069q-2.8125 0 -5.4375 -0.796875q-2.609375 -0.796875 -4.125 -2.109375l1.546875 -3.5q1.5 1.171875 3.65625 1.921875q2.171875 0.75 4.359375 0.75q2.703125 0 4.03125 -0.859375q1.34375 -0.875 1.34375 -2.296875q0 -1.046875 -0.75 -1.71875q-0.75 -0.671875 -1.890625 -1.046875q-1.140625 -0.390625 -3.125 -0.875q-2.765625 -0.65625 -4.484375 -1.3125q-1.71875 -0.671875 -2.953125 -2.0625q-1.21875 -1.40625 -1.21875 -3.796875q0 -2.015625 1.09375 -3.65625q1.09375 -1.65625 3.28125 -2.625q2.203125 -0.96875 5.390625 -0.96875q2.21875 0 4.359375 0.5625q2.15625 0.546875 3.71875 1.59375l-1.421875 3.5q-1.59375 -0.9375 -3.328125 -1.421875q-1.734375 -0.484375 -3.359375 -0.484375q-2.671875 0 -3.96875 0.90625q-1.296875 0.890625 -1.296875 2.375q0 1.046875 0.734375 1.703125q0.75 0.65625 1.890625 1.046875q1.15625 0.375 3.125 0.859375q2.703125 0.625 4.4375 1.3125q1.734375 0.671875 2.953125 2.0625q1.234375 1.375 1.234375 3.734375q0 2.0 -1.09375 3.640625q-1.078125 1.625 -3.296875 2.59375q-2.21875 0.96875 -5.40625 0.96875zm22.658203 -3.78125q3.015625 0 5.03125 -2.0l2.28125 2.671875q-1.203125 1.484375 -3.109375 2.25q-1.90625 0.765625 -4.296875 0.765625q-3.0625 0 -5.390625 -1.21875q-2.3125 -1.21875 -3.578125 -3.375q-1.265625 -2.171875 -1.265625 -4.90625q0 -2.703125 1.234375 -4.859375q1.234375 -2.171875 3.390625 -3.390625q2.171875 -1.21875 4.90625 -1.21875q2.609375 0 4.734375 1.125q2.125 1.125 3.375 3.234375q1.25 2.09375 1.25 4.890625l-14.171875 2.78125q0.65625 1.59375 2.109375 2.421875q1.453125 0.828125 3.5 0.828125zm-0.796875 -11.8125q-2.390625 0 -3.859375 1.5625q-1.46875 1.5625 -1.46875 4.1875l0 0.03125l10.453125 -2.0q-0.4375 -1.703125 -1.8125 -2.734375q-1.375 -1.046875 -3.3125 -1.046875zm22.00592 15.5q-2.875 0 -5.171875 -1.21875q-2.28125 -1.21875 -3.5625 -3.375q-1.28125 -2.171875 -1.28125 -4.90625q0 -2.734375 1.28125 -4.875q1.28125 -2.15625 3.546875 -3.375q2.28125 -1.21875 5.1875 -1.21875q2.75 0 4.796875 1.109375q2.0625 1.109375 3.109375 3.1875l-3.328125 1.953125q-0.796875 -1.296875 -2.0 -1.9375q-1.1875 -0.640625 -2.609375 -0.640625q-2.421875 0 -4.015625 1.578125q-1.59375 1.578125 -1.59375 4.21875q0 2.625 1.578125 4.203125q1.578125 1.578125 4.03125 1.578125q1.421875 0 2.609375 -0.640625q1.203125 -0.640625 2.0 -1.921875l3.328125 1.9375q-1.078125 2.078125 -3.140625 3.21875q-2.0625 1.125 -4.765625 1.125zm19.686096 0q-2.796875 0 -5.0625 -1.21875q-2.25 -1.21875 -3.515625 -3.375q-1.265625 -2.171875 -1.265625 -4.90625q0 -2.734375 1.265625 -4.875q1.265625 -2.15625 3.515625 -3.375q2.265625 -1.21875 5.0625 -1.21875q2.84375 0 5.09375 1.21875q2.25 1.21875 3.515625 3.375q1.265625 2.140625 1.265625 4.875q0 2.734375 -1.265625 4.90625q-1.265625 2.15625 -3.515625 3.375q-2.25 1.21875 -5.09375 1.21875zm0 -3.71875q2.390625 0 3.953125 -1.59375q1.5625 -1.59375 1.5625 -4.1875q0 -2.609375 -1.5625 -4.203125q-1.5625 -1.59375 -3.953125 -1.59375q-2.390625 0 -3.9375 1.59375q-1.53125 1.59375 -1.53125 4.203125q0 2.59375 1.53125 4.1875q1.546875 1.59375 3.9375 1.59375zm24.540771 -15.25q3.5 0 5.609375 2.046875q2.125 2.046875 2.125 6.0625l0 10.609375l-4.34375 0l0 -10.046875q0 -2.421875 -1.140625 -3.65625q-1.140625 -1.234375 -3.25 -1.234375q-2.390625 0 -3.78125 1.4375q-1.390625 1.4375 -1.390625 4.140625l0 9.359375l-4.328125 0l0 -18.5l4.125 0l0 2.390625q1.078125 -1.28125 2.703125 -1.9375q1.625 -0.671875 3.671875 -0.671875zm31.537903 -7.0l0 25.71875l-4.15625 0l0 -2.390625q-1.078125 1.3125 -2.65625 1.984375q-1.578125 0.65625 -3.484375 0.65625q-2.671875 0 -4.796875 -1.171875q-2.125 -1.1875 -3.34375 -3.359375q-1.21875 -2.171875 -1.21875 -4.96875q0 -2.8125 1.21875 -4.953125q1.21875 -2.15625 3.34375 -3.328125q2.125 -1.1875 4.796875 -1.1875q1.84375 0 3.359375 0.625q1.53125 0.625 2.609375 1.875l0 -9.5l4.328125 0zm-9.78125 22.25q1.5625 0 2.8125 -0.703125q1.25 -0.71875 1.96875 -2.03125q0.734375 -1.3125 0.734375 -3.046875q0 -1.734375 -0.734375 -3.046875q-0.71875 -1.328125 -1.96875 -2.03125q-1.25 -0.71875 -2.8125 -0.71875q-1.546875 0 -2.796875 0.71875q-1.25 0.703125 -1.984375 2.03125q-0.71875 1.3125 -0.71875 3.046875q0 1.734375 0.71875 3.046875q0.734375 1.3125 1.984375 2.03125q1.25 0.703125 2.796875 0.703125zm33.5589 -15.03125l0 18.5l-4.125 0l0 -2.390625q-1.078125 1.3125 -2.65625 1.984375q-1.578125 0.65625 -3.484375 0.65625q-2.703125 0 -4.84375 -1.171875q-2.125 -1.1875 -3.328125 -3.328125q-1.1875 -2.15625 -1.1875 -5.0q0 -2.84375 1.1875 -4.96875q1.203125 -2.140625 3.328125 -3.3125q2.140625 -1.1875 4.84375 -1.1875q1.796875 0 3.296875 0.625q1.515625 0.625 2.625 1.84375l0 -2.25l4.34375 0zm-9.78125 15.03125q2.390625 0 3.953125 -1.59375q1.5625 -1.59375 1.5625 -4.1875q0 -2.609375 -1.5625 -4.203125q-1.5625 -1.59375 -3.953125 -1.59375q-2.390625 0 -3.9375 1.59375q-1.53125 1.59375 -1.53125 4.203125q0 2.59375 1.53125 4.1875q1.546875 1.59375 3.9375 1.59375zm19.586731 -12.328125q1.875 -2.921875 6.578125 -2.921875l0 4.125q-0.546875 -0.09375 -1.0 -0.09375q-2.53125 0 -3.953125 1.46875q-1.421875 1.46875 -1.421875 4.25l0 8.96875l-4.328125 0l0 -18.5l4.125 0l0 2.703125zm28.352478 -2.703125l0 15.6875q0 9.78125 -9.609375 9.78125q-2.53125 0 -4.84375 -0.6875q-2.296875 -0.671875 -3.78125 -1.953125l1.9375 -3.25q1.1875 1.0 2.875 1.578125q1.703125 0.59375 3.578125 0.59375q2.84375 0 4.171875 -1.375q1.328125 -1.359375 1.328125 -4.203125l0 -0.859375q-1.03125 1.140625 -2.53125 1.75q-1.484375 0.609375 -3.21875 0.609375q-3.703125 0 -5.84375 -2.046875q-2.125 -2.046875 -2.125 -6.140625l0 -9.484375l4.328125 0l0 8.9375q0 2.453125 1.125 3.6875q1.125 1.234375 3.21875 1.234375q2.3125 0 3.671875 -1.421875q1.375 -1.421875 1.375 -4.125l0 -8.3125l4.34375 0zm22.212952 -3.953125q-2.75 0 -2.75 2.96875l0 1.109375l5.109375 0l0 3.46875l-5.0 0l0 14.90625l-4.328125 0l0 -19.546875q0 -2.9375 1.734375 -4.671875q1.734375 -1.734375 4.921875 -1.734375q2.453125 0 3.875 1.0l-1.203125 3.265625q-1.046875 -0.765625 -2.359375 -0.765625zm13.30011 22.703125q-2.796875 0 -5.0625 -1.21875q-2.25 -1.21875 -3.515625 -3.375q-1.265625 -2.171875 -1.265625 -4.90625q0 -2.734375 1.265625 -4.875q1.265625 -2.15625 3.515625 -3.375q2.265625 -1.21875 5.0625 -1.21875q2.84375 0 5.09375 1.21875q2.25 1.21875 3.515625 3.375q1.265625 2.140625 1.265625 4.875q0 2.734375 -1.265625 4.90625q-1.265625 2.15625 -3.515625 3.375q-2.25 1.21875 -5.09375 1.21875zm0 -3.71875q2.390625 0 3.953125 -1.59375q1.5625 -1.59375 1.5625 -4.1875q0 -2.609375 -1.5625 -4.203125q-1.5625 -1.59375 -3.953125 -1.59375q-2.390625 0 -3.9375 1.59375q-1.53125 1.59375 -1.53125 4.203125q0 2.59375 1.53125 4.1875q1.546875 1.59375 3.9375 1.59375zm24.540771 -15.25q3.5 0 5.609375 2.046875q2.125 2.046875 2.125 6.0625l0 10.609375l-4.34375 0l0 -10.046875q0 -2.421875 -1.140625 -3.65625q-1.140625 -1.234375 -3.25 -1.234375q-2.390625 0 -3.78125 1.4375q-1.390625 1.4375 -1.390625 4.140625l0 9.359375l-4.328125 0l0 -18.5l4.125 0l0 2.390625q1.078125 -1.28125 2.703125 -1.9375q1.625 -0.671875 3.671875 -0.671875zm23.630188 17.71875q-0.765625 0.625 -1.859375 0.9375q-1.078125 0.3125 -2.296875 0.3125q-3.046875 0 -4.71875 -1.59375q-1.65625 -1.609375 -1.65625 -4.65625l0 -16.59375l4.328125 0l0 4.21875l4.953125 0l0 3.46875l-4.953125 0l0 8.8125q0 1.34375 0.671875 2.0625q0.6875 0.703125 1.890625 0.703125q1.46875 0 2.4375 -0.765625l1.203125 3.09375z" fill-rule="nonzero"/><path fill="#000000" fill-opacity="0.0" d="m53.249344 124.80315l376.56696 0l0 68.18898l-376.56696 0z" fill-rule="evenodd"/><path fill="#312f41" d="m75.48372 134.49753q3.15625 0 5.5 1.046875q2.34375 1.03125 3.578125 2.984375q1.25 1.9375 1.25 4.609375q0 2.625 -1.25 4.59375q-1.234375 1.953125 -3.578125 3.0q-2.34375 1.03125 -5.5 1.03125l-5.46875 0l0 7.0l-4.515625 0l0 -24.265625l9.984375 0zm-0.203125 13.453125q2.9375 0 4.46875 -1.25q1.53125 -1.25 1.53125 -3.5625q0 -2.328125 -1.53125 -3.578125q-1.53125 -1.25 -4.46875 -1.25l-5.265625 0l0 9.640625l5.265625 0zm18.577957 -4.984375q1.875 -2.921875 6.578125 -2.921875l0 4.125q-0.546875 -0.09375 -1.0 -0.09375q-2.53125 0 -3.953125 1.46875q-1.421875 1.46875 -1.421875 4.25l0 8.96875l-4.328125 0l0 -18.5l4.125 0l0 2.703125zm10.257294 -2.703125l4.328125 0l0 18.5l-4.328125 0l0 -18.5zm2.1875 -3.0625q-1.1875 0 -1.984375 -0.734375q-0.796875 -0.75 -0.796875 -1.859375q0 -1.109375 0.796875 -1.84375q0.796875 -0.75 1.984375 -0.75q1.171875 0 1.96875 0.71875q0.796875 0.703125 0.796875 1.765625q0 1.15625 -0.78125 1.9375q-0.78125 0.765625 -1.984375 0.765625zm31.187546 2.84375q3.5 0 5.546875 2.03125q2.046875 2.03125 2.046875 6.078125l0 10.609375l-4.34375 0l0 -10.046875q0 -2.421875 -1.078125 -3.65625q-1.0625 -1.234375 -3.078125 -1.234375q-2.1875 0 -3.5 1.4375q-1.3125 1.4375 -1.3125 4.109375l0 9.390625l-4.328125 0l0 -10.046875q0 -2.421875 -1.078125 -3.65625q-1.078125 -1.234375 -3.09375 -1.234375q-2.21875 0 -3.515625 1.421875q-1.296875 1.421875 -1.296875 4.125l0 9.390625l-4.328125 0l0 -18.5l4.125 0l0 2.34375q1.03125 -1.234375 2.59375 -1.890625q1.5625 -0.671875 3.46875 -0.671875q2.078125 0 3.6875 0.78125q1.609375 0.78125 2.546875 2.3125q1.140625 -1.453125 2.9375 -2.265625q1.8125 -0.828125 4.0 -0.828125zm31.400787 0.21875l0 18.5l-4.125 0l0 -2.390625q-1.078125 1.3125 -2.65625 1.984375q-1.578125 0.65625 -3.484375 0.65625q-2.703125 0 -4.84375 -1.171875q-2.125 -1.1875 -3.328125 -3.328125q-1.1875 -2.15625 -1.1875 -5.0q0 -2.84375 1.1875 -4.96875q1.203125 -2.140625 3.328125 -3.3125q2.140625 -1.1875 4.84375 -1.1875q1.796875 0 3.296875 0.625q1.515625 0.625 2.625 1.84375l0 -2.25l4.34375 0zm-9.78125 15.03125q2.390625 0 3.953125 -1.59375q1.5625 -1.59375 1.5625 -4.1875q0 -2.609375 -1.5625 -4.203125q-1.5625 -1.59375 -3.953125 -1.59375q-2.390625 0 -3.9375 1.59375q-1.53125 1.59375 -1.53125 4.203125q0 2.59375 1.53125 4.1875q1.546875 1.59375 3.9375 1.59375zm19.586716 -12.328125q1.875 -2.921875 6.578125 -2.921875l0 4.125q-0.546875 -0.09375 -1.0 -0.09375q-2.53125 0 -3.953125 1.46875q-1.421875 1.46875 -1.421875 4.25l0 8.96875l-4.328125 0l0 -18.5l4.125 0l0 2.703125zm28.352509 -2.703125l0 15.6875q0 9.78125 -9.609375 9.78125q-2.53125 0 -4.84375 -0.6875q-2.296875 -0.671875 -3.78125 -1.953125l1.9375 -3.25q1.1875 1.0 2.875 1.578125q1.703125 0.59375 3.578125 0.59375q2.84375 0 4.171875 -1.375q1.328125 -1.359375 1.328125 -4.203125l0 -0.859375q-1.03125 1.140625 -2.53125 1.75q-1.484375 0.609375 -3.21875 0.609375q-3.703125 0 -5.84375 -2.046875q-2.125 -2.046875 -2.125 -6.140625l0 -9.484375l4.328125 0l0 8.9375q0 2.453125 1.125 3.6875q1.125 1.234375 3.21875 1.234375q2.3125 0 3.671875 -1.421875q1.375 -1.421875 1.375 -4.125l0 -8.3125l4.34375 0zm26.259827 -2.15625q-3.109375 0 -4.703125 1.390625q-1.59375 1.390625 -1.59375 4.09375l0 2.078125l10.5625 0l0 3.8125l-10.5625 0l0 9.28125l-4.515625 0l0 -15.171875q0 -4.40625 2.828125 -6.921875q2.828125 -2.515625 7.78125 -2.515625q2.078125 0 3.875 0.453125q1.8125 0.453125 3.15625 1.3125l-1.421875 3.671875q-2.140625 -1.484375 -5.40625 -1.484375zm17.397217 20.90625q-2.796875 0 -5.0625 -1.21875q-2.25 -1.21875 -3.515625 -3.375q-1.265625 -2.171875 -1.265625 -4.90625q0 -2.734375 1.265625 -4.875q1.265625 -2.15625 3.515625 -3.375q2.265625 -1.21875 5.0625 -1.21875q2.84375 0 5.09375 1.21875q2.25 1.21875 3.515625 3.375q1.265625 2.140625 1.265625 4.875q0 2.734375 -1.265625 4.90625q-1.265625 2.15625 -3.515625 3.375q-2.25 1.21875 -5.09375 1.21875zm0 -3.71875q2.390625 0 3.953125 -1.59375q1.5625 -1.59375 1.5625 -4.1875q0 -2.609375 -1.5625 -4.203125q-1.5625 -1.59375 -3.953125 -1.59375q-2.390625 0 -3.9375 1.59375q-1.53125 1.59375 -1.53125 4.203125q0 2.59375 1.53125 4.1875q1.546875 1.59375 3.9375 1.59375zm24.540802 -15.25q3.5 0 5.609375 2.046875q2.125 2.046875 2.125 6.0625l0 10.609375l-4.34375 0l0 -10.046875q0 -2.421875 -1.140625 -3.65625q-1.140625 -1.234375 -3.25 -1.234375q-2.390625 0 -3.78125 1.4375q-1.390625 1.4375 -1.390625 4.140625l0 9.359375l-4.328125 0l0 -18.5l4.125 0l0 2.390625q1.078125 -1.28125 2.703125 -1.9375q1.625 -0.671875 3.671875 -0.671875zm23.630188 17.71875q-0.765625 0.625 -1.859375 0.9375q-1.078125 0.3125 -2.296875 0.3125q-3.046875 0 -4.71875 -1.59375q-1.65625 -1.609375 -1.65625 -4.65625l0 -16.59375l4.328125 0l0 4.21875l4.953125 0l0 3.46875l-4.953125 0l0 8.8125q0 1.34375 0.671875 2.0625q0.6875 0.703125 1.890625 0.703125q1.46875 0 2.4375 -0.765625l1.203125 3.09375z" fill-rule="nonzero"/></g></svg>